%TF.GenerationSoftware,KiCad,Pcbnew,10.0.3*%
%TF.CreationDate,2026-07-06T11:49:35-06:00*%
%TF.ProjectId,Daughterboard,44617567-6874-4657-9262-6f6172642e6b,rev?*%
%TF.SameCoordinates,Original*%
%TF.FileFunction,Copper,L4,Bot*%
%TF.FilePolarity,Positive*%
%FSLAX46Y46*%
G04 Gerber Fmt 4.6, Leading zero omitted, Abs format (unit mm)*
G04 Created by KiCad (PCBNEW 10.0.3) date 2026-07-06 11:49:35*
%MOMM*%
%LPD*%
G01*
G04 APERTURE LIST*
G04 Aperture macros list*
%AMRoundRect*
0 Rectangle with rounded corners*
0 $1 Rounding radius*
0 $2 $3 $4 $5 $6 $7 $8 $9 X,Y pos of 4 corners*
0 Add a 4 corners polygon primitive as box body*
4,1,4,$2,$3,$4,$5,$6,$7,$8,$9,$2,$3,0*
0 Add four circle primitives for the rounded corners*
1,1,$1+$1,$2,$3*
1,1,$1+$1,$4,$5*
1,1,$1+$1,$6,$7*
1,1,$1+$1,$8,$9*
0 Add four rect primitives between the rounded corners*
20,1,$1+$1,$2,$3,$4,$5,0*
20,1,$1+$1,$4,$5,$6,$7,0*
20,1,$1+$1,$6,$7,$8,$9,0*
20,1,$1+$1,$8,$9,$2,$3,0*%
G04 Aperture macros list end*
%TA.AperFunction,ComponentPad*%
%ADD10R,1.700000X1.700000*%
%TD*%
%TA.AperFunction,ComponentPad*%
%ADD11C,1.700000*%
%TD*%
%TA.AperFunction,ComponentPad*%
%ADD12R,1.800000X1.800000*%
%TD*%
%TA.AperFunction,ComponentPad*%
%ADD13C,1.800000*%
%TD*%
%TA.AperFunction,ComponentPad*%
%ADD14O,1.100000X1.700000*%
%TD*%
%TA.AperFunction,ComponentPad*%
%ADD15RoundRect,0.250000X-0.600000X-0.725000X0.600000X-0.725000X0.600000X0.725000X-0.600000X0.725000X0*%
%TD*%
%TA.AperFunction,ComponentPad*%
%ADD16O,1.700000X1.950000*%
%TD*%
%TA.AperFunction,ViaPad*%
%ADD17C,0.600000*%
%TD*%
%TA.AperFunction,ViaPad*%
%ADD18C,1.000000*%
%TD*%
%TA.AperFunction,ViaPad*%
%ADD19C,0.800000*%
%TD*%
%TA.AperFunction,ViaPad*%
%ADD20C,0.700000*%
%TD*%
%TA.AperFunction,Conductor*%
%ADD21C,0.200000*%
%TD*%
%TA.AperFunction,Conductor*%
%ADD22C,1.000000*%
%TD*%
G04 APERTURE END LIST*
D10*
%TO.P,J5,1*%
%TO.N,+3V3_SW*%
X122600000Y-24800000D03*
D11*
%TO.P,J5,2*%
%TO.N,GND*%
X122600000Y-27340000D03*
%TO.P,J5,3*%
%TO.N,I2C_SDA*%
X122600000Y-29880000D03*
%TO.P,J5,4*%
%TO.N,I2C_SCL*%
X122600000Y-32420000D03*
%TD*%
D12*
%TO.P,SW1,1*%
%TO.N,+5V*%
X39650000Y-12380000D03*
D13*
X39650000Y-14920000D03*
%TO.P,SW1,2*%
%TO.N,+5V_SW*%
X52350000Y-12380000D03*
X52350000Y-14920000D03*
%TO.P,SW1,3*%
%TO.N,GND*%
X39650000Y-17460000D03*
X39650000Y-20000000D03*
X52350000Y-17460000D03*
X52350000Y-20000000D03*
%TO.P,SW1,4*%
%TO.N,CTRL_5V_SW*%
X39650000Y-27620000D03*
%TD*%
D12*
%TO.P,SW2,1*%
%TO.N,+3V3*%
X82900000Y-31800000D03*
D13*
X82900000Y-34340000D03*
%TO.P,SW2,2*%
%TO.N,+3V3_SW*%
X95600000Y-31800000D03*
X95600000Y-34340000D03*
%TO.P,SW2,3*%
%TO.N,GND*%
X82900000Y-36880000D03*
X82900000Y-39420000D03*
X95600000Y-36880000D03*
X95600000Y-39420000D03*
%TO.P,SW2,4*%
%TO.N,CTRL_3V3_SW*%
X82900000Y-47040000D03*
%TD*%
D14*
%TO.P,J1,SH*%
%TO.N,GND*%
X71960000Y-50200000D03*
X71960000Y-54000000D03*
X80600000Y-50200000D03*
X80600000Y-54000000D03*
%TD*%
D10*
%TO.P,J6,1*%
%TO.N,GPIO14*%
X123000000Y-38860000D03*
D11*
%TO.P,J6,2*%
%TO.N,GPIO21*%
X123000000Y-41400000D03*
%TD*%
D15*
%TO.P,J7,1*%
%TO.N,BATT_RAW_N*%
X70600000Y-16500000D03*
D16*
%TO.P,J7,2*%
%TO.N,CELL_MID*%
X68100000Y-16500000D03*
%TO.P,J7,3*%
%TO.N,PACK_P*%
X65600000Y-16500000D03*
%TD*%
D17*
%TO.N,GND*%
X86762700Y-28716800D03*
X144233600Y-51158600D03*
X108732800Y-53297900D03*
X144728000Y-53542700D03*
X93900000Y-25379400D03*
X74599100Y-24172200D03*
X92649400Y-23700000D03*
X17321000Y-54643600D03*
X146309300Y-71537400D03*
X85854900Y-16419600D03*
X91148700Y-16493200D03*
X31541100Y-44266100D03*
X47924200Y-43293400D03*
X139940800Y-29352800D03*
X31901900Y-31737600D03*
X26818200Y-60012300D03*
X132784400Y-26391800D03*
X149438900Y-50928900D03*
X17912300Y-71112300D03*
X95156200Y-54966300D03*
X155146400Y-21200000D03*
X139456600Y-50306500D03*
X136195300Y-41991900D03*
X132845400Y-41745400D03*
X71793900Y-45940000D03*
X44963000Y-33715200D03*
X27822500Y-64437600D03*
X132751200Y-33432300D03*
X148946900Y-16753100D03*
X18944600Y-16755400D03*
X84594900Y-24355600D03*
X49754600Y-43578300D03*
X30801800Y-53801800D03*
X136931700Y-16546000D03*
X36800000Y-32596400D03*
X80717700Y-44908000D03*
X22355200Y-25232700D03*
X56395900Y-46423700D03*
X154433000Y-50304900D03*
X19991800Y-55497700D03*
X28205600Y-55509700D03*
X137256800Y-44406800D03*
X29290500Y-60399200D03*
X25990500Y-26603700D03*
X31542200Y-47342200D03*
X138744200Y-44344200D03*
X44452800Y-44318900D03*
X39056000Y-39107300D03*
X30944600Y-16755400D03*
X136975600Y-20374900D03*
X143240900Y-56290900D03*
X29191000Y-65269900D03*
X102304900Y-53397600D03*
X59771200Y-29643900D03*
X24004100Y-34197100D03*
X32418000Y-29353900D03*
X28091600Y-31793500D03*
%TO.N,+3V3_SW_LOGIC*%
X127648500Y-18000300D03*
X88360200Y-23496500D03*
X139922700Y-42645700D03*
X143594000Y-32434500D03*
%TO.N,AIN4*%
X158659900Y-14554100D03*
X157676900Y-21262900D03*
%TO.N,I2C_SDA*%
X66434800Y-29352700D03*
X159645700Y-27001400D03*
X26463900Y-33172200D03*
X82646300Y-28487700D03*
X118480700Y-20252900D03*
%TO.N,I2C_SCL*%
X137784300Y-27228200D03*
X70002000Y-30036500D03*
X26538300Y-34896300D03*
X91510300Y-24970900D03*
X158528400Y-21345700D03*
D18*
%TO.N,PACK_P*%
X34332300Y-42258400D03*
X36274700Y-37300000D03*
X56125400Y-37820500D03*
D17*
%TO.N,EXP_GPB2*%
X147576200Y-26100300D03*
X131449000Y-24116900D03*
%TO.N,MCP_INTB*%
X146579700Y-55422200D03*
X142059300Y-41821900D03*
D19*
%TO.N,+5V*%
X22001700Y-59029100D03*
X38048300Y-57302600D03*
D17*
%TO.N,EXP_GPA2*%
X136892800Y-22573800D03*
X127700000Y-14886300D03*
D19*
%TO.N,BAT_SYS*%
X77944800Y-25882000D03*
X51432500Y-38678000D03*
X50185400Y-26219900D03*
D18*
%TO.N,USB_VBUS*%
X20000300Y-41659600D03*
X74680100Y-51535000D03*
X80574800Y-43778400D03*
%TO.N,CHG_IN*%
X23188800Y-71255900D03*
X20600000Y-39550300D03*
D20*
%TO.N,+3V3_SW*%
X75000000Y-27825400D03*
X132239400Y-19810600D03*
X35629000Y-20451500D03*
D17*
%TO.N,GPIO2*%
X117200000Y-32142300D03*
X51204500Y-47675600D03*
%TO.N,TS*%
X27185200Y-35980200D03*
X26852300Y-40817100D03*
X67309800Y-30787100D03*
X27241600Y-47090000D03*
%TO.N,EXP_GPB3*%
X157613000Y-61671800D03*
X146615500Y-28415900D03*
X129356500Y-28060900D03*
%TO.N,EXP_GPA4*%
X132841400Y-43855800D03*
X148459800Y-46059800D03*
%TO.N,EXP_GPA6*%
X128488300Y-41164400D03*
X154009600Y-44371400D03*
%TO.N,MCP_RESET*%
X140497100Y-40962400D03*
X143662700Y-55392600D03*
%TO.N,CBSET*%
X31263500Y-39483800D03*
X29615300Y-44501000D03*
%TO.N,EXP_GPA3*%
X149747300Y-23934200D03*
X160597100Y-55922200D03*
%TO.N,PMID*%
X28601800Y-26130200D03*
X28664500Y-30433000D03*
%TO.N,EXP_GPB4*%
X133747700Y-35893200D03*
X135947000Y-28877500D03*
X160296100Y-64380300D03*
%TO.N,EXP_GPB5*%
X153343400Y-67309800D03*
X139708400Y-35339900D03*
X144403000Y-28442100D03*
%TO.N,EXP_GPB6*%
X151101400Y-66063900D03*
X137901700Y-31693000D03*
%TO.N,EXP_GPB7*%
X161437700Y-67408200D03*
X157613000Y-35339900D03*
%TO.N,CELL_MID*%
X48173400Y-34919500D03*
X39082200Y-57402800D03*
X39082200Y-43924200D03*
D19*
%TO.N,+5V_SW*%
X91962800Y-53699400D03*
D17*
%TO.N,PROT_VDD*%
X58279300Y-31865000D03*
X52350800Y-40365100D03*
%TO.N,MCP_GPA1*%
X134204000Y-21376200D03*
X142908300Y-37415700D03*
%TO.N,EXP_GPA1*%
X137923700Y-19537400D03*
X120704200Y-14852500D03*
%TO.N,BQ_PACK*%
X44217200Y-36568200D03*
X61817600Y-30587600D03*
%TO.N,EN_5V*%
X24978500Y-58820300D03*
X26602700Y-68509700D03*
%TO.N,LED_PGOOD_A*%
X26571500Y-74867200D03*
X49217000Y-36071300D03*
%TO.N,CTRL_5V_SW*%
X50185400Y-50166300D03*
%TO.N,EXP_GPA0*%
X117077900Y-14626200D03*
X140133500Y-19554900D03*
X146331500Y-40903500D03*
%TO.N,PG_STAT*%
X58600000Y-40422400D03*
X24254700Y-70719400D03*
X27120200Y-32638500D03*
X24605900Y-41003400D03*
%TO.N,UART_TX*%
X58447800Y-21310700D03*
X85234300Y-52353300D03*
%TO.N,LED_CHG_A*%
X47553500Y-38852400D03*
X18052200Y-75073600D03*
%TO.N,CHG_STAT*%
X27094700Y-33709500D03*
X22361600Y-75176400D03*
X55073000Y-34116900D03*
%TO.N,AIN2*%
X139000000Y-14590900D03*
X89715800Y-21321400D03*
%TO.N,MCP_INTA*%
X144621900Y-42111700D03*
X146809300Y-59375000D03*
%TO.N,BTST*%
X35283600Y-36028900D03*
X32038900Y-36380700D03*
%TO.N,MCP_GPB4*%
X147653000Y-28556100D03*
X133897800Y-28455000D03*
%TO.N,MCP_GPA2*%
X145540900Y-20670000D03*
X146065500Y-37586500D03*
%TO.N,MCP_GPA3*%
X150692800Y-20770000D03*
X148264000Y-37586500D03*
%TO.N,AIN1*%
X92748000Y-22282800D03*
X33544500Y-17222300D03*
%TO.N,AIN3*%
X151120900Y-17315600D03*
X91054700Y-23646200D03*
%TO.N,UART_RX*%
X59137700Y-26800500D03*
X88978700Y-52504400D03*
%TO.N,DO_GATE*%
X48233500Y-42085600D03*
X64994300Y-35540700D03*
%TO.N,AIN0*%
X21000000Y-14564400D03*
X94540200Y-22026200D03*
%TO.N,BQ_DSG*%
X64569000Y-38332900D03*
X60923600Y-30761400D03*
%TO.N,BQ_CHG*%
X62625000Y-30796000D03*
X45946100Y-41100000D03*
%TO.N,BQ_PBI*%
X63823900Y-28679900D03*
X68594000Y-34913000D03*
%TD*%
%TO.N,+3V3_SW_LOGIC*%
D21*
X139922700Y-42645700D02*
X143594000Y-38974400D01*
X143594000Y-38974400D02*
X143594000Y-32434500D01*
%TO.N,PACK_P*%
D22*
X63998300Y-16500000D02*
X63998300Y-18101700D01*
X56125400Y-25974600D02*
X56125400Y-37820500D01*
X65600000Y-16500000D02*
X63998300Y-16500000D01*
X63998300Y-18101700D02*
X56125400Y-25974600D01*
%TO.N,EXP_GPB5*%
D21*
X144403000Y-30645300D02*
X144403000Y-28442100D01*
X139708400Y-35339900D02*
X144403000Y-30645300D01*
%TO.N,EN_5V*%
X24978500Y-58820300D02*
X24978500Y-66885500D01*
X24978500Y-66885500D02*
X26602700Y-68509700D01*
%TD*%
M02*
