M48
; DRILL file KiCad 10.0.3 date 2026-07-06T11:49:41
; FORMAT={-:-/ absolute / metric / decimal}
; #@! TF.CreationDate,2026-07-06T11:49:41-06:00
; #@! TF.GenerationSoftware,Kicad,Pcbnew,10.0.3
; #@! TF.FileFunction,MixedPlating,1,4
FMAT,2
METRIC
; #@! TA.AperFunction,Plated,PTH,ViaDrill
T1C0.300
; #@! TA.AperFunction,Plated,PTH,ViaDrill
T2C0.350
; #@! TA.AperFunction,Plated,PTH,ViaDrill
T3C0.400
; #@! TA.AperFunction,Plated,PTH,ViaDrill
T4C0.500
; #@! TA.AperFunction,Plated,PTH,ComponentDrill
T5C0.600
; #@! TA.AperFunction,Plated,PTH,ComponentDrill
T6C0.950
; #@! TA.AperFunction,Plated,PTH,ComponentDrill
T7C1.000
; #@! TA.AperFunction,Plated,PTH,ComponentDrill
T8C1.020
%
G90
G05
T1
X17.321Y-54.644
X17.912Y-71.112
X18.052Y-75.074
X18.945Y-16.755
X19.992Y-55.498
X21.0Y-14.564
X22.355Y-25.233
X22.362Y-75.176
X24.004Y-34.197
X24.255Y-70.719
X24.606Y-41.003
X24.979Y-58.82
X25.99Y-26.604
X26.464Y-33.172
X26.538Y-34.896
X26.572Y-74.867
X26.603Y-68.51
X26.818Y-60.012
X26.852Y-40.817
X27.095Y-33.709
X27.12Y-32.639
X27.185Y-35.98
X27.242Y-47.09
X27.822Y-64.438
X28.092Y-31.793
X28.206Y-55.51
X28.602Y-26.13
X28.665Y-30.433
X29.191Y-65.27
X29.29Y-60.399
X29.615Y-44.501
X30.802Y-53.802
X30.945Y-16.755
X31.263Y-39.484
X31.541Y-44.266
X31.542Y-47.342
X31.902Y-31.738
X32.039Y-36.381
X32.418Y-29.354
X33.544Y-17.222
X35.284Y-36.029
X36.8Y-32.596
X39.056Y-39.107
X39.082Y-43.924
X39.082Y-57.403
X44.217Y-36.568
X44.453Y-44.319
X44.963Y-33.715
X45.946Y-41.1
X47.553Y-38.852
X47.924Y-43.293
X48.173Y-34.919
X48.233Y-42.086
X49.217Y-36.071
X49.755Y-43.578
X50.185Y-50.166
X51.204Y-47.676
X52.351Y-40.365
X55.073Y-34.117
X56.396Y-46.424
X58.279Y-31.865
X58.448Y-21.311
X58.6Y-40.422
X59.138Y-26.8
X59.771Y-29.644
X60.924Y-30.761
X61.818Y-30.588
X62.625Y-30.796
X63.824Y-28.68
X64.569Y-38.333
X64.994Y-35.541
X66.435Y-29.353
X67.31Y-30.787
X68.594Y-34.913
X70.002Y-30.037
X71.794Y-45.94
X74.599Y-24.172
X80.718Y-44.908
X82.646Y-28.488
X84.595Y-24.356
X85.234Y-52.353
X85.855Y-16.42
X86.763Y-28.717
X88.36Y-23.496
X88.979Y-52.504
X89.716Y-21.321
X91.055Y-23.646
X91.149Y-16.493
X91.51Y-24.971
X92.649Y-23.7
X92.748Y-22.283
X93.9Y-25.379
X94.54Y-22.026
X95.156Y-54.966
X102.305Y-53.398
X108.733Y-53.298
X117.078Y-14.626
X117.2Y-32.142
X118.481Y-20.253
X120.704Y-14.852
X127.648Y-18.0
X127.7Y-14.886
X128.488Y-41.164
X129.356Y-28.061
X131.449Y-24.117
X132.751Y-33.432
X132.784Y-26.392
X132.841Y-43.856
X132.845Y-41.745
X133.748Y-35.893
X133.898Y-28.455
X134.204Y-21.376
X135.947Y-28.877
X136.195Y-41.992
X136.893Y-22.574
X136.932Y-16.546
X136.976Y-20.375
X137.257Y-44.407
X137.784Y-27.228
X137.902Y-31.693
X137.924Y-19.537
X138.744Y-44.344
X139.0Y-14.591
X139.457Y-50.306
X139.708Y-35.34
X139.923Y-42.646
X139.941Y-29.353
X140.133Y-19.555
X140.497Y-40.962
X142.059Y-41.822
X142.908Y-37.416
X143.241Y-56.291
X143.594Y-32.434
X143.663Y-55.393
X144.234Y-51.159
X144.403Y-28.442
X144.622Y-42.112
X144.728Y-53.543
X145.541Y-20.67
X146.065Y-37.587
X146.309Y-71.537
X146.332Y-40.904
X146.58Y-55.422
X146.615Y-28.416
X146.809Y-59.375
X147.576Y-26.1
X147.653Y-28.556
X148.264Y-37.587
X148.46Y-46.06
X148.947Y-16.753
X149.439Y-50.929
X149.747Y-23.934
X150.693Y-20.77
X151.101Y-66.064
X151.121Y-17.316
X153.343Y-67.31
X154.01Y-44.371
X154.433Y-50.305
X155.146Y-21.2
X157.613Y-35.34
X157.613Y-61.672
X157.677Y-21.263
X158.528Y-21.346
X158.66Y-14.554
X159.646Y-27.001
X160.296Y-64.38
X160.597Y-55.922
X161.438Y-67.408
T2
X35.629Y-20.451
X75.0Y-27.825
X132.239Y-19.811
T3
X22.002Y-59.029
X38.048Y-57.303
X50.185Y-26.22
X51.432Y-38.678
X77.945Y-25.882
X91.963Y-53.699
T4
X20.0Y-41.66
X20.6Y-39.55
X23.189Y-71.256
X34.332Y-42.258
X36.275Y-37.3
X56.125Y-37.82
X74.68Y-51.535
X80.575Y-43.778
T6
X65.6Y-16.5
X68.1Y-16.5
X70.6Y-16.5
T7
X122.6Y-24.8
X122.6Y-27.34
X122.6Y-29.88
X122.6Y-32.42
X123.0Y-38.86
X123.0Y-41.4
T8
X39.65Y-12.38
X39.65Y-14.92
X39.65Y-17.46
X39.65Y-20.0
X39.65Y-27.62
X52.35Y-12.38
X52.35Y-14.92
X52.35Y-17.46
X52.35Y-20.0
X82.9Y-31.8
X82.9Y-34.34
X82.9Y-36.88
X82.9Y-39.42
X82.9Y-47.04
X95.6Y-31.8
X95.6Y-34.34
X95.6Y-36.88
X95.6Y-39.42
T5
X71.96Y-49.9G85X71.96Y-50.5
G05
X71.96Y-53.7G85X71.96Y-54.3
G05
X80.6Y-49.9G85X80.6Y-50.5
G05
X80.6Y-53.7G85X80.6Y-54.3
G05
M30
