%TF.GenerationSoftware,KiCad,Pcbnew,10.0.3*%
%TF.CreationDate,2026-07-06T12:34:21-06:00*%
%TF.ProjectId,Daughterboard,44617567-6874-4657-9262-6f6172642e6b,rev?*%
%TF.SameCoordinates,Original*%
%TF.FileFunction,Profile,NP*%
%FSLAX46Y46*%
G04 Gerber Fmt 4.6, Leading zero omitted, Abs format (unit mm)*
G04 Created by KiCad (PCBNEW 10.0.3) date 2026-07-06 12:34:21*
%MOMM*%
%LPD*%
G01*
G04 APERTURE LIST*
%TA.AperFunction,Profile*%
%ADD10C,0.150000*%
%TD*%
G04 APERTURE END LIST*
D10*
X10000000Y-10000000D02*
X164970425Y-10000000D01*
X164970425Y-10000000D02*
X164970425Y-90610446D01*
X164970425Y-90610446D02*
X161434374Y-90610446D01*
X161434374Y-90610446D02*
X125443127Y-56000000D01*
X125443127Y-56000000D02*
X49559584Y-56000000D01*
X49559584Y-56000000D02*
X13568337Y-90610446D01*
X13568337Y-90610446D02*
X10000000Y-90610446D01*
X10000000Y-90610446D02*
X10000000Y-10000000D01*
X158603566Y-22741232D02*
G75*
G02*
X156103566Y-22741232I-1250000J0D01*
G01*
X156103566Y-22741232D02*
G75*
G02*
X158603566Y-22741232I1250000J0D01*
G01*
X70833764Y-44844737D02*
G75*
G02*
X62833764Y-44844737I-4000000J0D01*
G01*
X62833764Y-44844737D02*
G75*
G02*
X70833764Y-44844737I4000000J0D01*
G01*
X111833764Y-44844737D02*
G75*
G02*
X103833764Y-44844737I-4000000J0D01*
G01*
X103833764Y-44844737D02*
G75*
G02*
X111833764Y-44844737I4000000J0D01*
G01*
X160289454Y-79478679D02*
G75*
G02*
X157789454Y-79478679I-1250000J0D01*
G01*
X157789454Y-79478679D02*
G75*
G02*
X160289454Y-79478679I1250000J0D01*
G01*
X67337017Y-18721661D02*
G75*
G02*
X64837017Y-18721661I-1250000J0D01*
G01*
X64837017Y-18721661D02*
G75*
G02*
X67337017Y-18721661I1250000J0D01*
G01*
X17651119Y-78330951D02*
G75*
G02*
X15151119Y-78330951I-1250000J0D01*
G01*
X15151119Y-78330951D02*
G75*
G02*
X17651119Y-78330951I1250000J0D01*
G01*
M02*
