%TF.GenerationSoftware,KiCad,Pcbnew,10.0.3*%
%TF.CreationDate,2026-07-06T12:41:51-06:00*%
%TF.ProjectId,Daughterboard,44617567-6874-4657-9262-6f6172642e6b,rev?*%
%TF.SameCoordinates,Original*%
%TF.FileFunction,Copper,L1,Top*%
%TF.FilePolarity,Positive*%
%FSLAX46Y46*%
G04 Gerber Fmt 4.6, Leading zero omitted, Abs format (unit mm)*
G04 Created by KiCad (PCBNEW 10.0.3) date 2026-07-06 12:41:51*
%MOMM*%
%LPD*%
G01*
G04 APERTURE LIST*
G04 Aperture macros list*
%AMRoundRect*
0 Rectangle with rounded corners*
0 $1 Rounding radius*
0 $2 $3 $4 $5 $6 $7 $8 $9 X,Y pos of 4 corners*
0 Add a 4 corners polygon primitive as box body*
4,1,4,$2,$3,$4,$5,$6,$7,$8,$9,$2,$3,0*
0 Add four circle primitives for the rounded corners*
1,1,$1+$1,$2,$3*
1,1,$1+$1,$4,$5*
1,1,$1+$1,$6,$7*
1,1,$1+$1,$8,$9*
0 Add four rect primitives between the rounded corners*
20,1,$1+$1,$2,$3,$4,$5,0*
20,1,$1+$1,$4,$5,$6,$7,0*
20,1,$1+$1,$6,$7,$8,$9,0*
20,1,$1+$1,$8,$9,$2,$3,0*%
G04 Aperture macros list end*
%TA.AperFunction,Conductor*%
%ADD10C,0.200000*%
%TD*%
%TA.AperFunction,SMDPad,CuDef*%
%ADD11RoundRect,0.200000X0.275000X-0.200000X0.275000X0.200000X-0.275000X0.200000X-0.275000X-0.200000X0*%
%TD*%
%TA.AperFunction,SMDPad,CuDef*%
%ADD12RoundRect,0.075000X-0.650000X-0.075000X0.650000X-0.075000X0.650000X0.075000X-0.650000X0.075000X0*%
%TD*%
%TA.AperFunction,SMDPad,CuDef*%
%ADD13RoundRect,0.250000X-0.475000X0.250000X-0.475000X-0.250000X0.475000X-0.250000X0.475000X0.250000X0*%
%TD*%
%TA.AperFunction,SMDPad,CuDef*%
%ADD14RoundRect,0.200000X-0.275000X0.200000X-0.275000X-0.200000X0.275000X-0.200000X0.275000X0.200000X0*%
%TD*%
%TA.AperFunction,SMDPad,CuDef*%
%ADD15R,1.500000X1.500000*%
%TD*%
%TA.AperFunction,SMDPad,CuDef*%
%ADD16C,1.000000*%
%TD*%
%TA.AperFunction,SMDPad,CuDef*%
%ADD17RoundRect,0.250000X-0.375000X-0.625000X0.375000X-0.625000X0.375000X0.625000X-0.375000X0.625000X0*%
%TD*%
%TA.AperFunction,SMDPad,CuDef*%
%ADD18RoundRect,0.112500X0.187500X0.112500X-0.187500X0.112500X-0.187500X-0.112500X0.187500X-0.112500X0*%
%TD*%
%TA.AperFunction,ComponentPad*%
%ADD19R,1.700000X1.700000*%
%TD*%
%TA.AperFunction,ComponentPad*%
%ADD20C,1.700000*%
%TD*%
%TA.AperFunction,SMDPad,CuDef*%
%ADD21RoundRect,0.200000X-0.200000X-0.275000X0.200000X-0.275000X0.200000X0.275000X-0.200000X0.275000X0*%
%TD*%
%TA.AperFunction,SMDPad,CuDef*%
%ADD22RoundRect,0.150000X0.512500X0.150000X-0.512500X0.150000X-0.512500X-0.150000X0.512500X-0.150000X0*%
%TD*%
%TA.AperFunction,SMDPad,CuDef*%
%ADD23RoundRect,0.225000X-0.225000X-0.250000X0.225000X-0.250000X0.225000X0.250000X-0.225000X0.250000X0*%
%TD*%
%TA.AperFunction,SMDPad,CuDef*%
%ADD24RoundRect,0.250000X-0.250000X-0.475000X0.250000X-0.475000X0.250000X0.475000X-0.250000X0.475000X0*%
%TD*%
%TA.AperFunction,SMDPad,CuDef*%
%ADD25RoundRect,0.150000X-0.512500X-0.150000X0.512500X-0.150000X0.512500X0.150000X-0.512500X0.150000X0*%
%TD*%
%TA.AperFunction,SMDPad,CuDef*%
%ADD26RoundRect,0.225000X0.225000X0.250000X-0.225000X0.250000X-0.225000X-0.250000X0.225000X-0.250000X0*%
%TD*%
%TA.AperFunction,SMDPad,CuDef*%
%ADD27RoundRect,0.150000X0.150000X-0.512500X0.150000X0.512500X-0.150000X0.512500X-0.150000X-0.512500X0*%
%TD*%
%TA.AperFunction,ComponentPad*%
%ADD28R,1.800000X1.800000*%
%TD*%
%TA.AperFunction,ComponentPad*%
%ADD29C,1.800000*%
%TD*%
%TA.AperFunction,SMDPad,CuDef*%
%ADD30RoundRect,0.200000X0.200000X0.275000X-0.200000X0.275000X-0.200000X-0.275000X0.200000X-0.275000X0*%
%TD*%
%TA.AperFunction,SMDPad,CuDef*%
%ADD31RoundRect,0.225000X-0.250000X0.225000X-0.250000X-0.225000X0.250000X-0.225000X0.250000X0.225000X0*%
%TD*%
%TA.AperFunction,SMDPad,CuDef*%
%ADD32RoundRect,0.175000X-0.175000X-0.425000X0.175000X-0.425000X0.175000X0.425000X-0.175000X0.425000X0*%
%TD*%
%TA.AperFunction,SMDPad,CuDef*%
%ADD33RoundRect,0.190000X0.190000X0.410000X-0.190000X0.410000X-0.190000X-0.410000X0.190000X-0.410000X0*%
%TD*%
%TA.AperFunction,SMDPad,CuDef*%
%ADD34RoundRect,0.200000X0.200000X0.400000X-0.200000X0.400000X-0.200000X-0.400000X0.200000X-0.400000X0*%
%TD*%
%TA.AperFunction,SMDPad,CuDef*%
%ADD35RoundRect,0.175000X0.175000X0.425000X-0.175000X0.425000X-0.175000X-0.425000X0.175000X-0.425000X0*%
%TD*%
%TA.AperFunction,SMDPad,CuDef*%
%ADD36RoundRect,0.190000X-0.190000X-0.410000X0.190000X-0.410000X0.190000X0.410000X-0.190000X0.410000X0*%
%TD*%
%TA.AperFunction,SMDPad,CuDef*%
%ADD37RoundRect,0.200000X-0.200000X-0.400000X0.200000X-0.400000X0.200000X0.400000X-0.200000X0.400000X0*%
%TD*%
%TA.AperFunction,ComponentPad*%
%ADD38O,1.100000X1.700000*%
%TD*%
%TA.AperFunction,SMDPad,CuDef*%
%ADD39RoundRect,0.150000X-0.150000X0.512500X-0.150000X-0.512500X0.150000X-0.512500X0.150000X0.512500X0*%
%TD*%
%TA.AperFunction,SMDPad,CuDef*%
%ADD40RoundRect,0.250000X-0.312500X-0.625000X0.312500X-0.625000X0.312500X0.625000X-0.312500X0.625000X0*%
%TD*%
%TA.AperFunction,SMDPad,CuDef*%
%ADD41RoundRect,0.218750X-0.218750X-0.256250X0.218750X-0.256250X0.218750X0.256250X-0.218750X0.256250X0*%
%TD*%
%TA.AperFunction,SMDPad,CuDef*%
%ADD42RoundRect,0.250000X0.250000X0.475000X-0.250000X0.475000X-0.250000X-0.475000X0.250000X-0.475000X0*%
%TD*%
%TA.AperFunction,SMDPad,CuDef*%
%ADD43RoundRect,0.150000X-0.150000X-0.700000X0.150000X-0.700000X0.150000X0.700000X-0.150000X0.700000X0*%
%TD*%
%TA.AperFunction,SMDPad,CuDef*%
%ADD44RoundRect,0.250000X-0.250000X-1.150000X0.250000X-1.150000X0.250000X1.150000X-0.250000X1.150000X0*%
%TD*%
%TA.AperFunction,ComponentPad*%
%ADD45RoundRect,0.250000X-0.600000X-0.725000X0.600000X-0.725000X0.600000X0.725000X-0.600000X0.725000X0*%
%TD*%
%TA.AperFunction,ComponentPad*%
%ADD46O,1.700000X1.950000*%
%TD*%
%TA.AperFunction,SMDPad,CuDef*%
%ADD47RoundRect,0.225000X0.250000X-0.225000X0.250000X0.225000X-0.250000X0.225000X-0.250000X-0.225000X0*%
%TD*%
%TA.AperFunction,SMDPad,CuDef*%
%ADD48RoundRect,0.150000X-0.150000X0.875000X-0.150000X-0.875000X0.150000X-0.875000X0.150000X0.875000X0*%
%TD*%
%TA.AperFunction,SMDPad,CuDef*%
%ADD49RoundRect,0.250000X0.475000X-0.250000X0.475000X0.250000X-0.475000X0.250000X-0.475000X-0.250000X0*%
%TD*%
%TA.AperFunction,SMDPad,CuDef*%
%ADD50RoundRect,0.249999X-0.450001X-1.850001X0.450001X-1.850001X0.450001X1.850001X-0.450001X1.850001X0*%
%TD*%
%TA.AperFunction,SMDPad,CuDef*%
%ADD51C,0.300000*%
%TD*%
%TA.AperFunction,SMDPad,CuDef*%
%ADD52RoundRect,0.250000X-0.300000X-1.600000X0.300000X-1.600000X0.300000X1.600000X-0.300000X1.600000X0*%
%TD*%
%TA.AperFunction,SMDPad,CuDef*%
%ADD53RoundRect,0.062500X-0.350000X-0.062500X0.350000X-0.062500X0.350000X0.062500X-0.350000X0.062500X0*%
%TD*%
%TA.AperFunction,SMDPad,CuDef*%
%ADD54RoundRect,0.062500X-0.062500X-0.350000X0.062500X-0.350000X0.062500X0.350000X-0.062500X0.350000X0*%
%TD*%
%TA.AperFunction,HeatsinkPad*%
%ADD55R,2.700000X2.700000*%
%TD*%
%TA.AperFunction,SMDPad,CuDef*%
%ADD56RoundRect,0.050000X0.250000X0.050000X-0.250000X0.050000X-0.250000X-0.050000X0.250000X-0.050000X0*%
%TD*%
%TA.AperFunction,SMDPad,CuDef*%
%ADD57RoundRect,0.104000X0.546000X0.946000X-0.546000X0.946000X-0.546000X-0.946000X0.546000X-0.946000X0*%
%TD*%
%TA.AperFunction,SMDPad,CuDef*%
%ADD58RoundRect,0.075000X0.650000X0.075000X-0.650000X0.075000X-0.650000X-0.075000X0.650000X-0.075000X0*%
%TD*%
%TA.AperFunction,ViaPad*%
%ADD59C,0.600000*%
%TD*%
%TA.AperFunction,ViaPad*%
%ADD60C,1.000000*%
%TD*%
%TA.AperFunction,ViaPad*%
%ADD61C,0.800000*%
%TD*%
%TA.AperFunction,ViaPad*%
%ADD62C,0.700000*%
%TD*%
%TA.AperFunction,Conductor*%
%ADD63C,1.000000*%
%TD*%
%TA.AperFunction,Conductor*%
%ADD64C,0.250200*%
%TD*%
%TA.AperFunction,Conductor*%
%ADD65C,0.750000*%
%TD*%
%TA.AperFunction,Conductor*%
%ADD66C,0.601000*%
%TD*%
%TA.AperFunction,Conductor*%
%ADD67C,0.761200*%
%TD*%
%TA.AperFunction,Conductor*%
%ADD68C,0.500000*%
%TD*%
%TA.AperFunction,Conductor*%
%ADD69C,0.200200*%
%TD*%
%TA.AperFunction,Conductor*%
%ADD70C,0.801400*%
%TD*%
%TA.AperFunction,Conductor*%
%ADD71C,0.299800*%
%TD*%
G04 APERTURE END LIST*
%TO.N,CHG_IN*%
D10*
X28400000Y-31100000D02*
X27400000Y-30900000D01*
X29000000Y-31300000D02*
X28400000Y-31100000D01*
X29300000Y-31800000D02*
X29000000Y-31300000D01*
%TO.N,BATT_RAW_N*%
X47900000Y-44600000D02*
X46600000Y-44600000D01*
%TD*%
D11*
%TO.P,R3,1*%
%TO.N,ILIM*%
X25000000Y-35800000D03*
%TO.P,R3,2*%
%TO.N,GND*%
X25000000Y-34150000D03*
%TD*%
D12*
%TO.P,U6,1*%
%TO.N,+3V3_SW_LOGIC*%
X156400000Y-20200000D03*
%TO.P,U6,2*%
%TO.N,N/C*%
X156400000Y-20700000D03*
%TO.P,U6,3*%
%TO.N,GND*%
X156400000Y-21200000D03*
%TO.P,U6,4*%
%TO.N,AIN4*%
X156400000Y-21700000D03*
%TO.P,U6,5*%
%TO.N,AIN5*%
X156400000Y-22200000D03*
%TO.P,U6,6*%
%TO.N,AIN6*%
X160700000Y-22200000D03*
%TO.P,U6,7*%
%TO.N,AIN7*%
X160700000Y-21700000D03*
%TO.P,U6,8*%
%TO.N,+3V3_SW_LOGIC*%
X160700000Y-21200000D03*
%TO.P,U6,9*%
%TO.N,I2C_SDA*%
X160700000Y-20700000D03*
%TO.P,U6,10*%
%TO.N,I2C_SCL*%
X160700000Y-20200000D03*
%TD*%
D13*
%TO.P,C5,1*%
%TO.N,PACK_P*%
X37800000Y-37300000D03*
%TO.P,C5,2*%
%TO.N,GND*%
X37800000Y-39200000D03*
%TD*%
D14*
%TO.P,R33,1*%
%TO.N,MCP_GPB2*%
X148600000Y-25600000D03*
%TO.P,R33,2*%
%TO.N,EXP_GPB2*%
X148600000Y-27250000D03*
%TD*%
D11*
%TO.P,R39,1*%
%TO.N,MCP_A0*%
X135200000Y-43650000D03*
%TO.P,R39,2*%
%TO.N,GND*%
X135200000Y-42000000D03*
%TD*%
D15*
%TO.P,J926,1*%
%TO.N,MCP_INTB*%
X147200000Y-56800000D03*
%TD*%
D11*
%TO.P,R8,1*%
%TO.N,+5V*%
X16100000Y-59850000D03*
%TO.P,R8,2*%
%TO.N,FB_5V*%
X16100000Y-58200000D03*
%TD*%
D15*
%TO.P,J93,1*%
%TO.N,EXP_GPA2*%
X126000000Y-14400000D03*
%TD*%
D16*
%TO.P,TP5,1*%
%TO.N,BAT_SYS*%
X25400000Y-47600000D03*
%TD*%
D11*
%TO.P,R28,1*%
%TO.N,MCP_GPA5*%
X149200000Y-43650000D03*
%TO.P,R28,2*%
%TO.N,EXP_GPA5*%
X149200000Y-42000000D03*
%TD*%
D17*
%TO.P,F1,1*%
%TO.N,USB_VBUS*%
X19200000Y-40000000D03*
%TO.P,F1,2*%
%TO.N,CHG_IN*%
X22000000Y-40000000D03*
%TD*%
D18*
%TO.P,D1,1*%
%TO.N,CHG_IN*%
X20600000Y-71700000D03*
%TO.P,D1,2*%
%TO.N,GND*%
X18500000Y-71700000D03*
%TD*%
D19*
%TO.P,J5,1*%
%TO.N,+3V3_SW*%
X122600000Y-24800000D03*
D20*
%TO.P,J5,2*%
%TO.N,GND*%
X122600000Y-27340000D03*
%TO.P,J5,3*%
%TO.N,I2C_SDA*%
X122600000Y-29880000D03*
%TO.P,J5,4*%
%TO.N,I2C_SCL*%
X122600000Y-32420000D03*
%TD*%
D15*
%TO.P,J35,1*%
%TO.N,GPIO2*%
X117200000Y-30200000D03*
%TD*%
D16*
%TO.P,TP7,1*%
%TO.N,+3V3*%
X102900000Y-33600000D03*
%TD*%
D21*
%TO.P,TH1,1*%
%TO.N,TS*%
X29150000Y-46600000D03*
%TO.P,TH1,2*%
%TO.N,GND*%
X30800000Y-46600000D03*
%TD*%
D15*
%TO.P,J912,1*%
%TO.N,EXP_GPB3*%
X157400000Y-63800000D03*
%TD*%
D16*
%TO.P,TP15,1*%
%TO.N,AIN4*%
X158600000Y-13300000D03*
%TD*%
D22*
%TO.P,D5,1*%
%TO.N,EXP_GPA4*%
X131675000Y-43750000D03*
%TO.P,D5,2*%
%TO.N,EXP_GPA5*%
X131675000Y-42800000D03*
%TO.P,D5,3*%
%TO.N,GND*%
X131675000Y-41850000D03*
%TO.P,D5,4*%
%TO.N,EXP_GPA6*%
X129400000Y-41850000D03*
%TO.P,D5,5*%
%TO.N,EXP_GPA7*%
X129400000Y-42800000D03*
%TD*%
D15*
%TO.P,J927,1*%
%TO.N,MCP_RESET*%
X147200000Y-64800000D03*
%TD*%
D23*
%TO.P,C8,1*%
%TO.N,CBSET*%
X29225000Y-43500000D03*
%TO.P,C8,2*%
%TO.N,GND*%
X30775000Y-43500000D03*
%TD*%
D16*
%TO.P,TP17,1*%
%TO.N,AIN6*%
X158600000Y-16600000D03*
%TD*%
D15*
%TO.P,J99,1*%
%TO.N,EXP_GPB0*%
X122600000Y-14400000D03*
%TD*%
%TO.P,J94,1*%
%TO.N,EXP_GPA3*%
X162000000Y-57800000D03*
%TD*%
D24*
%TO.P,C3,1*%
%TO.N,PMID*%
X29500000Y-29400000D03*
%TO.P,C3,2*%
%TO.N,GND*%
X31400000Y-29400000D03*
%TD*%
D22*
%TO.P,D7,1*%
%TO.N,EXP_GPB4*%
X131600000Y-35800000D03*
%TO.P,D7,2*%
%TO.N,EXP_GPB5*%
X131600000Y-34850000D03*
%TO.P,D7,3*%
%TO.N,GND*%
X131600000Y-33900000D03*
%TO.P,D7,4*%
%TO.N,EXP_GPB6*%
X129325000Y-33900000D03*
%TO.P,D7,5*%
%TO.N,EXP_GPB7*%
X129325000Y-34850000D03*
%TD*%
D25*
%TO.P,U4,1*%
%TO.N,FB_3V3*%
X81125000Y-22800000D03*
%TO.P,U4,2*%
%TO.N,EN_3V3*%
X81125000Y-23750000D03*
%TO.P,U4,3*%
%TO.N,BAT_SYS*%
X81125000Y-24700000D03*
%TO.P,U4,4*%
%TO.N,GND*%
X83400000Y-24700000D03*
%TO.P,U4,5*%
%TO.N,SW_3V3*%
X83400000Y-23750000D03*
%TO.P,U4,6*%
%TO.N,BST_3V3*%
X83400000Y-22800000D03*
%TD*%
D15*
%TO.P,J39,1*%
%TO.N,GND*%
X58500000Y-30000000D03*
%TD*%
D11*
%TO.P,R32,1*%
%TO.N,MCP_GPB1*%
X151400000Y-27250000D03*
%TO.P,R32,2*%
%TO.N,EXP_GPB1*%
X151400000Y-25600000D03*
%TD*%
D17*
%TO.P,F2,1*%
%TO.N,CELL1_P*%
X19200000Y-36200000D03*
%TO.P,F2,2*%
%TO.N,CELL_MID*%
X22000000Y-36200000D03*
%TD*%
D15*
%TO.P,J30,1*%
%TO.N,+5V_SW*%
X58500000Y-15000000D03*
%TD*%
D26*
%TO.P,C25,1*%
%TO.N,PROT_VDD*%
X66250000Y-25500000D03*
%TO.P,C25,2*%
%TO.N,PROT_VC*%
X64700000Y-25500000D03*
%TD*%
D14*
%TO.P,R24,1*%
%TO.N,MCP_GPA1*%
X132700000Y-21050000D03*
%TO.P,R24,2*%
%TO.N,EXP_GPA1*%
X132700000Y-22700000D03*
%TD*%
D11*
%TO.P,R9,1*%
%TO.N,FB_5V*%
X21000000Y-57050000D03*
%TO.P,R9,2*%
%TO.N,GND*%
X21000000Y-55400000D03*
%TD*%
D15*
%TO.P,J96,1*%
%TO.N,EXP_GPA5*%
X162000000Y-47800000D03*
%TD*%
D21*
%TO.P,R16,1*%
%TO.N,BAT_SYS*%
X42250000Y-38600000D03*
%TO.P,R16,2*%
%TO.N,BQ_PACK*%
X43900000Y-38600000D03*
%TD*%
%TO.P,R11,1*%
%TO.N,+3V3*%
X79175000Y-29000000D03*
%TO.P,R11,2*%
%TO.N,FB_3V3*%
X80825000Y-29000000D03*
%TD*%
D27*
%TO.P,U3,1*%
%TO.N,FB_5V*%
X25500000Y-57475000D03*
%TO.P,U3,2*%
%TO.N,EN_5V*%
X26450000Y-57475000D03*
%TO.P,U3,3*%
%TO.N,BAT_SYS*%
X27400000Y-57475000D03*
%TO.P,U3,4*%
%TO.N,GND*%
X27400000Y-55200000D03*
%TO.P,U3,5*%
%TO.N,SW_5V*%
X26450000Y-55200000D03*
%TO.P,U3,6*%
%TO.N,BST_5V*%
X25500000Y-55200000D03*
%TD*%
D11*
%TO.P,R41,1*%
%TO.N,MCP_A2*%
X138000000Y-46800000D03*
%TO.P,R41,2*%
%TO.N,GND*%
X138000000Y-45150000D03*
%TD*%
D21*
%TO.P,R7,1*%
%TO.N,REGN*%
X46650000Y-36200000D03*
%TO.P,R7,2*%
%TO.N,LED_PGOOD_A*%
X48300000Y-36200000D03*
%TD*%
D15*
%TO.P,J915,1*%
%TO.N,EXP_GPB6*%
X157400000Y-68800000D03*
%TD*%
D23*
%TO.P,C12,1*%
%TO.N,BAT_SYS*%
X25050000Y-61000000D03*
%TO.P,C12,2*%
%TO.N,GND*%
X26600000Y-61000000D03*
%TD*%
D15*
%TO.P,J92,1*%
%TO.N,EXP_GPA1*%
X119200000Y-14400000D03*
%TD*%
D28*
%TO.P,SW1,1*%
%TO.N,+5V*%
X39650000Y-12380000D03*
D29*
X39650000Y-14920000D03*
%TO.P,SW1,2*%
%TO.N,+5V_SW*%
X52350000Y-12380000D03*
X52350000Y-14920000D03*
%TO.P,SW1,3*%
%TO.N,GND*%
X39650000Y-17460000D03*
X39650000Y-20000000D03*
X52350000Y-17460000D03*
X52350000Y-20000000D03*
%TO.P,SW1,4*%
%TO.N,CTRL_5V_SW*%
X39650000Y-27620000D03*
%TD*%
D15*
%TO.P,J34,1*%
%TO.N,I2C_SCL*%
X117200000Y-25200000D03*
%TD*%
D11*
%TO.P,R30,1*%
%TO.N,MCP_GPA7*%
X154800000Y-43650000D03*
%TO.P,R30,2*%
%TO.N,EXP_GPA7*%
X154800000Y-42000000D03*
%TD*%
D15*
%TO.P,J916,1*%
%TO.N,EXP_GPB7*%
X161800000Y-68800000D03*
%TD*%
D11*
%TO.P,R44,1*%
%TO.N,+3V3_SW_LOGIC*%
X140800000Y-43650000D03*
%TO.P,R44,2*%
%TO.N,MCP_INTB*%
X140800000Y-42000000D03*
%TD*%
D16*
%TO.P,TP18,1*%
%TO.N,AIN7*%
X162400000Y-16600000D03*
%TD*%
D30*
%TO.P,R5,1*%
%TO.N,REGN*%
X29650000Y-39400000D03*
%TO.P,R5,2*%
%TO.N,TS*%
X28000000Y-39400000D03*
%TD*%
D28*
%TO.P,SW2,1*%
%TO.N,+3V3*%
X82900000Y-31800000D03*
D29*
X82900000Y-34340000D03*
%TO.P,SW2,2*%
%TO.N,+3V3_SW*%
X95600000Y-31800000D03*
X95600000Y-34340000D03*
%TO.P,SW2,3*%
%TO.N,GND*%
X82900000Y-36880000D03*
X82900000Y-39420000D03*
X95600000Y-36880000D03*
X95600000Y-39420000D03*
%TO.P,SW2,4*%
%TO.N,CTRL_3V3_SW*%
X82900000Y-47040000D03*
%TD*%
D15*
%TO.P,J928,1*%
%TO.N,+3V3_SW_LOGIC*%
X147000000Y-68800000D03*
%TD*%
%TO.P,J38,1*%
%TO.N,GPIO21*%
X117200000Y-45200000D03*
%TD*%
D31*
%TO.P,C4,1*%
%TO.N,PMID*%
X27000000Y-25250000D03*
%TO.P,C4,2*%
%TO.N,GND*%
X27000000Y-26800000D03*
%TD*%
D14*
%TO.P,R34,1*%
%TO.N,MCP_GPB3*%
X146200000Y-25600000D03*
%TO.P,R34,2*%
%TO.N,EXP_GPB3*%
X146200000Y-27250000D03*
%TD*%
D23*
%TO.P,C9,1*%
%TO.N,PACK_P*%
X36225000Y-43500000D03*
%TO.P,C9,2*%
%TO.N,CELL_MID*%
X37775000Y-43500000D03*
%TD*%
D15*
%TO.P,J913,1*%
%TO.N,EXP_GPB4*%
X161800000Y-63800000D03*
%TD*%
%TO.P,J929,1*%
%TO.N,GND*%
X147000000Y-72800000D03*
%TD*%
D16*
%TO.P,TP4,1*%
%TO.N,CELL_MID*%
X41400000Y-57800000D03*
%TD*%
D15*
%TO.P,J33,1*%
%TO.N,I2C_SDA*%
X117200000Y-20200000D03*
%TD*%
D11*
%TO.P,R29,1*%
%TO.N,MCP_GPA6*%
X152000000Y-43650000D03*
%TO.P,R29,2*%
%TO.N,EXP_GPA6*%
X152000000Y-42000000D03*
%TD*%
D23*
%TO.P,C6,1*%
%TO.N,REGN*%
X42450000Y-33900000D03*
%TO.P,C6,2*%
%TO.N,GND*%
X44000000Y-33900000D03*
%TD*%
%TO.P,C28,1*%
%TO.N,+3V3_SW_LOGIC*%
X142225000Y-54000000D03*
%TO.P,C28,2*%
%TO.N,GND*%
X143775000Y-54000000D03*
%TD*%
D21*
%TO.P,R2,1*%
%TO.N,CC2*%
X78150000Y-45000000D03*
%TO.P,R2,2*%
%TO.N,GND*%
X79800000Y-45000000D03*
%TD*%
D15*
%TO.P,J98,1*%
%TO.N,EXP_GPA7*%
X162000000Y-37800000D03*
%TD*%
D32*
%TO.P,J1,A5*%
%TO.N,CC1*%
X75780000Y-50120000D03*
D33*
%TO.P,J1,A9*%
%TO.N,USB_VBUS*%
X77800000Y-50120000D03*
D34*
%TO.P,J1,A12*%
%TO.N,GND*%
X79030000Y-50120000D03*
D35*
%TO.P,J1,B5*%
%TO.N,CC2*%
X76780000Y-50120000D03*
D36*
%TO.P,J1,B9*%
%TO.N,USB_VBUS*%
X74760000Y-50120000D03*
D37*
%TO.P,J1,B12*%
%TO.N,GND*%
X73530000Y-50120000D03*
D38*
%TO.P,J1,SH*%
X71960000Y-50200000D03*
X71960000Y-54000000D03*
X80600000Y-50200000D03*
X80600000Y-54000000D03*
%TD*%
D11*
%TO.P,R23,1*%
%TO.N,MCP_GPA0*%
X146400000Y-43650000D03*
%TO.P,R23,2*%
%TO.N,EXP_GPA0*%
X146400000Y-42000000D03*
%TD*%
D39*
%TO.P,D4,1*%
%TO.N,EXP_GPA0*%
X139700000Y-20725000D03*
%TO.P,D4,2*%
%TO.N,EXP_GPA1*%
X138750000Y-20725000D03*
%TO.P,D4,3*%
%TO.N,GND*%
X137800000Y-20725000D03*
%TO.P,D4,4*%
%TO.N,EXP_GPA2*%
X137800000Y-23000000D03*
%TO.P,D4,5*%
%TO.N,EXP_GPA3*%
X138750000Y-23000000D03*
%TD*%
D19*
%TO.P,J6,1*%
%TO.N,GPIO14*%
X123000000Y-38860000D03*
D20*
%TO.P,J6,2*%
%TO.N,GPIO21*%
X123000000Y-41400000D03*
%TD*%
D16*
%TO.P,TP11,1*%
%TO.N,PG_STAT*%
X58600000Y-39400000D03*
%TD*%
%TO.P,TP16,1*%
%TO.N,AIN5*%
X162400000Y-13300000D03*
%TD*%
%TO.P,TP2,1*%
%TO.N,CHG_IN*%
X25400000Y-39800000D03*
%TD*%
D30*
%TO.P,R20,1*%
%TO.N,I2C_SCL*%
X126650000Y-18200000D03*
%TO.P,R20,2*%
%TO.N,+3V3_SW_LOGIC*%
X125000000Y-18200000D03*
%TD*%
D15*
%TO.P,J911,1*%
%TO.N,EXP_GPB2*%
X129400000Y-14400000D03*
%TD*%
%TO.P,J36,1*%
%TO.N,GPIO3*%
X117200000Y-35200000D03*
%TD*%
%TO.P,J910,1*%
%TO.N,EXP_GPB1*%
X132800000Y-14400000D03*
%TD*%
%TO.P,J31,1*%
%TO.N,UART_TX*%
X58500000Y-20000000D03*
%TD*%
D40*
%TO.P,R46,1*%
%TO.N,BATT_RAW_N*%
X52400000Y-46300000D03*
%TO.P,R46,2*%
%TO.N,GND*%
X55325000Y-46300000D03*
%TD*%
D14*
%TO.P,R36,1*%
%TO.N,MCP_GPB5*%
X143800000Y-25600000D03*
%TO.P,R36,2*%
%TO.N,EXP_GPB5*%
X143800000Y-27250000D03*
%TD*%
D23*
%TO.P,C10,1*%
%TO.N,CELL_MID*%
X51650000Y-36100000D03*
%TO.P,C10,2*%
%TO.N,BATT_RAW_N*%
X53200000Y-36100000D03*
%TD*%
D41*
%TO.P,D3,1*%
%TO.N,LED_PGOOD_A*%
X23325000Y-75400000D03*
%TO.P,D3,2*%
%TO.N,PG_STAT*%
X24900000Y-75400000D03*
%TD*%
D24*
%TO.P,C11,1*%
%TO.N,BAT_SYS*%
X24900000Y-64700000D03*
%TO.P,C11,2*%
%TO.N,GND*%
X26800000Y-64700000D03*
%TD*%
D41*
%TO.P,D2,1*%
%TO.N,LED_CHG_A*%
X19025000Y-75300000D03*
%TO.P,D2,2*%
%TO.N,CHG_STAT*%
X20600000Y-75300000D03*
%TD*%
D23*
%TO.P,C24,1*%
%TO.N,BST_3V3*%
X89150000Y-19400000D03*
%TO.P,C24,2*%
%TO.N,SW_3V3*%
X90700000Y-19400000D03*
%TD*%
D21*
%TO.P,R19,1*%
%TO.N,I2C_SDA*%
X159150000Y-26000000D03*
%TO.P,R19,2*%
%TO.N,+3V3_SW_LOGIC*%
X160800000Y-26000000D03*
%TD*%
D14*
%TO.P,R42,1*%
%TO.N,+3V3_SW_LOGIC*%
X151000000Y-55800000D03*
%TO.P,R42,2*%
%TO.N,MCP_RESET*%
X151000000Y-57450000D03*
%TD*%
D13*
%TO.P,C22,1*%
%TO.N,+3V3*%
X87100000Y-14700000D03*
%TO.P,C22,2*%
%TO.N,GND*%
X87100000Y-16600000D03*
%TD*%
D42*
%TO.P,C14,1*%
%TO.N,+5V*%
X32100000Y-64700000D03*
%TO.P,C14,2*%
%TO.N,GND*%
X30200000Y-64700000D03*
%TD*%
D30*
%TO.P,R10,1*%
%TO.N,EN_5V*%
X26650000Y-69500000D03*
%TO.P,R10,2*%
%TO.N,BAT_SYS*%
X25000000Y-69500000D03*
%TD*%
D22*
%TO.P,D6,1*%
%TO.N,EXP_GPB0*%
X131600000Y-28200000D03*
%TO.P,D6,2*%
%TO.N,EXP_GPB1*%
X131600000Y-27250000D03*
%TO.P,D6,3*%
%TO.N,GND*%
X131600000Y-26300000D03*
%TO.P,D6,4*%
%TO.N,EXP_GPB2*%
X129325000Y-26300000D03*
%TO.P,D6,5*%
%TO.N,EXP_GPB3*%
X129325000Y-27250000D03*
%TD*%
D43*
%TO.P,J41,1*%
%TO.N,GND*%
X137750000Y-15950000D03*
%TO.P,J41,2*%
%TO.N,AIN2*%
X139000000Y-15950000D03*
%TO.P,J41,3*%
%TO.N,+3V3_SW*%
X140250000Y-15950000D03*
D44*
%TO.P,J41,MP*%
%TO.N,N/C*%
X135900000Y-12600000D03*
X142100000Y-12600000D03*
%TD*%
D21*
%TO.P,R4,1*%
%TO.N,CBSET*%
X32350000Y-39300000D03*
%TO.P,R4,2*%
%TO.N,CELL_MID*%
X34000000Y-39300000D03*
%TD*%
D17*
%TO.P,F4,1*%
%TO.N,PACK_P*%
X19400000Y-47800000D03*
%TO.P,F4,2*%
%TO.N,BAT_SYS*%
X22200000Y-47800000D03*
%TD*%
D30*
%TO.P,R1,1*%
%TO.N,CC1*%
X74025000Y-45000000D03*
%TO.P,R1,2*%
%TO.N,GND*%
X72375000Y-45000000D03*
%TD*%
D23*
%TO.P,C15,1*%
%TO.N,BST_5V*%
X25250000Y-51900000D03*
%TO.P,C15,2*%
%TO.N,SW_5V*%
X26800000Y-51900000D03*
%TD*%
D16*
%TO.P,TP12,1*%
%TO.N,BATT_RAW_N*%
X58600000Y-44400000D03*
%TD*%
D14*
%TO.P,R14,1*%
%TO.N,PACK_P*%
X53500000Y-38850000D03*
%TO.P,R14,2*%
%TO.N,PROT_VDD*%
X53500000Y-40500000D03*
%TD*%
D21*
%TO.P,R45,1*%
%TO.N,+3V3_SW*%
X155975000Y-26000000D03*
%TO.P,R45,2*%
%TO.N,+3V3_SW_LOGIC*%
X157625000Y-26000000D03*
%TD*%
D17*
%TO.P,F3,1*%
%TO.N,CELL2_P*%
X19200000Y-44000000D03*
%TO.P,F3,2*%
%TO.N,PACK_P*%
X22000000Y-44000000D03*
%TD*%
D23*
%TO.P,C17,1*%
%TO.N,+3V3_SW_LOGIC*%
X136925000Y-50400000D03*
%TO.P,C17,2*%
%TO.N,GND*%
X138475000Y-50400000D03*
%TD*%
D14*
%TO.P,R38,1*%
%TO.N,MCP_GPB7*%
X141200000Y-25600000D03*
%TO.P,R38,2*%
%TO.N,EXP_GPB7*%
X141200000Y-27250000D03*
%TD*%
D11*
%TO.P,R43,1*%
%TO.N,+3V3_SW_LOGIC*%
X143600000Y-43650000D03*
%TO.P,R43,2*%
%TO.N,MCP_INTA*%
X143600000Y-42000000D03*
%TD*%
D16*
%TO.P,TP6,1*%
%TO.N,+5V*%
X36800000Y-57800000D03*
%TD*%
%TO.P,TP14,1*%
%TO.N,GND*%
X16300000Y-54700000D03*
%TD*%
D23*
%TO.P,C2,1*%
%TO.N,CHG_IN*%
X35250000Y-31600000D03*
%TO.P,C2,2*%
%TO.N,GND*%
X36800000Y-31600000D03*
%TD*%
D21*
%TO.P,R12,1*%
%TO.N,FB_3V3*%
X84175000Y-29000000D03*
%TO.P,R12,2*%
%TO.N,GND*%
X85825000Y-29000000D03*
%TD*%
D45*
%TO.P,J7,1*%
%TO.N,BATT_RAW_N*%
X70600000Y-16500000D03*
D46*
%TO.P,J7,2*%
%TO.N,CELL_MID*%
X68100000Y-16500000D03*
%TO.P,J7,3*%
%TO.N,PACK_P*%
X65600000Y-16500000D03*
%TD*%
D47*
%TO.P,C7,1*%
%TO.N,BTST*%
X34600000Y-35200000D03*
%TO.P,C7,2*%
%TO.N,CHG_SW*%
X34600000Y-33650000D03*
%TD*%
D48*
%TO.P,U7,1*%
%TO.N,MCP_GPB0*%
X152200000Y-30000000D03*
%TO.P,U7,2*%
%TO.N,MCP_GPB1*%
X150930000Y-30000000D03*
%TO.P,U7,3*%
%TO.N,MCP_GPB2*%
X149660000Y-30000000D03*
%TO.P,U7,4*%
%TO.N,MCP_GPB3*%
X148390000Y-30000000D03*
%TO.P,U7,5*%
%TO.N,MCP_GPB4*%
X147120000Y-30000000D03*
%TO.P,U7,6*%
%TO.N,MCP_GPB5*%
X145850000Y-30000000D03*
%TO.P,U7,7*%
%TO.N,MCP_GPB6*%
X144580000Y-30000000D03*
%TO.P,U7,8*%
%TO.N,MCP_GPB7*%
X143310000Y-30000000D03*
%TO.P,U7,9*%
%TO.N,+3V3_SW_LOGIC*%
X142040000Y-30000000D03*
%TO.P,U7,10*%
%TO.N,GND*%
X140770000Y-30000000D03*
%TO.P,U7,12*%
%TO.N,I2C_SCL*%
X138230000Y-30000000D03*
%TO.P,U7,13*%
%TO.N,I2C_SDA*%
X136960000Y-30000000D03*
%TO.P,U7,15*%
%TO.N,MCP_A0*%
X135690000Y-39300000D03*
%TO.P,U7,16*%
%TO.N,MCP_A1*%
X136960000Y-39300000D03*
%TO.P,U7,17*%
%TO.N,MCP_A2*%
X138230000Y-39300000D03*
%TO.P,U7,18*%
%TO.N,MCP_RESET*%
X139500000Y-39300000D03*
%TO.P,U7,19*%
%TO.N,MCP_INTB*%
X140770000Y-39300000D03*
%TO.P,U7,20*%
%TO.N,MCP_INTA*%
X142040000Y-39300000D03*
%TO.P,U7,21*%
%TO.N,MCP_GPA0*%
X143310000Y-39300000D03*
%TO.P,U7,22*%
%TO.N,MCP_GPA1*%
X144580000Y-39300000D03*
%TO.P,U7,23*%
%TO.N,MCP_GPA2*%
X145850000Y-39300000D03*
%TO.P,U7,24*%
%TO.N,MCP_GPA3*%
X147120000Y-39300000D03*
%TO.P,U7,25*%
%TO.N,MCP_GPA4*%
X148390000Y-39300000D03*
%TO.P,U7,26*%
%TO.N,MCP_GPA5*%
X149660000Y-39300000D03*
%TO.P,U7,27*%
%TO.N,MCP_GPA6*%
X150930000Y-39300000D03*
%TO.P,U7,28*%
%TO.N,MCP_GPA7*%
X152200000Y-39300000D03*
%TD*%
D49*
%TO.P,C1,1*%
%TO.N,CHG_IN*%
X23600000Y-27000000D03*
%TO.P,C1,2*%
%TO.N,GND*%
X23600000Y-25100000D03*
%TD*%
D43*
%TO.P,J40,1*%
%TO.N,GND*%
X31750000Y-15950000D03*
%TO.P,J40,2*%
%TO.N,AIN1*%
X33000000Y-15950000D03*
%TO.P,J40,3*%
%TO.N,+3V3_SW*%
X34250000Y-15950000D03*
D44*
%TO.P,J40,MP*%
%TO.N,N/C*%
X29900000Y-12600000D03*
X36100000Y-12600000D03*
%TD*%
D21*
%TO.P,R15,1*%
%TO.N,CELL_MID*%
X51550000Y-32400000D03*
%TO.P,R15,2*%
%TO.N,PROT_VC*%
X53200000Y-32400000D03*
%TD*%
D43*
%TO.P,J42,1*%
%TO.N,GND*%
X149750000Y-15950000D03*
%TO.P,J42,2*%
%TO.N,AIN3*%
X151000000Y-15950000D03*
%TO.P,J42,3*%
%TO.N,+3V3_SW*%
X152250000Y-15950000D03*
D44*
%TO.P,J42,MP*%
%TO.N,N/C*%
X147900000Y-12600000D03*
X154100000Y-12600000D03*
%TD*%
D43*
%TO.P,J4,1*%
%TO.N,+5V_SW*%
X96500000Y-53950000D03*
%TO.P,J4,2*%
%TO.N,GND*%
X97750000Y-53950000D03*
%TO.P,J4,3*%
%TO.N,UART_TX*%
X99000000Y-53950000D03*
%TO.P,J4,4*%
%TO.N,UART_RX*%
X100250000Y-53950000D03*
%TO.P,J4,5*%
%TO.N,GND*%
X101500000Y-53950000D03*
D44*
%TO.P,J4,MP*%
%TO.N,N/C*%
X94650000Y-50600000D03*
X103350000Y-50600000D03*
%TD*%
D23*
%TO.P,C20,1*%
%TO.N,+3V3_SW_LOGIC*%
X151925000Y-50400000D03*
%TO.P,C20,2*%
%TO.N,GND*%
X153475000Y-50400000D03*
%TD*%
D13*
%TO.P,C23,1*%
%TO.N,+3V3*%
X92400000Y-14700000D03*
%TO.P,C23,2*%
%TO.N,GND*%
X92400000Y-16600000D03*
%TD*%
D16*
%TO.P,TP9,1*%
%TO.N,+3V3_SW*%
X75000000Y-29000000D03*
%TD*%
D11*
%TO.P,R47,1*%
%TO.N,BATT_RAW_N*%
X70000000Y-24825000D03*
%TO.P,R47,2*%
%TO.N,BQ_SRN*%
X70000000Y-23175000D03*
%TD*%
D14*
%TO.P,R25,1*%
%TO.N,MCP_GPA2*%
X144400000Y-20950000D03*
%TO.P,R25,2*%
%TO.N,EXP_GPA2*%
X144400000Y-22600000D03*
%TD*%
D11*
%TO.P,R48,1*%
%TO.N,GND*%
X73800000Y-24850000D03*
%TO.P,R48,2*%
%TO.N,BQ_SRP*%
X73800000Y-23200000D03*
%TD*%
D23*
%TO.P,C26,1*%
%TO.N,PROT_VC*%
X64725000Y-22000000D03*
%TO.P,C26,2*%
%TO.N,BATT_RAW_N*%
X66275000Y-22000000D03*
%TD*%
D50*
%TO.P,L3,1*%
%TO.N,PMID*%
X30100000Y-24200000D03*
%TO.P,L3,2*%
%TO.N,CHG_SW*%
X33800000Y-24200000D03*
%TD*%
D15*
%TO.P,J925,1*%
%TO.N,MCP_INTA*%
X147200000Y-60800000D03*
%TD*%
D21*
%TO.P,R17,1*%
%TO.N,GPIO2*%
X49175000Y-52000000D03*
%TO.P,R17,2*%
%TO.N,CTRL_5V_SW*%
X50825000Y-52000000D03*
%TD*%
D16*
%TO.P,TP3,1*%
%TO.N,PACK_P*%
X25400000Y-43600000D03*
%TD*%
D14*
%TO.P,R13,1*%
%TO.N,EN_3V3*%
X77600000Y-23150000D03*
%TO.P,R13,2*%
%TO.N,BAT_SYS*%
X77600000Y-24800000D03*
%TD*%
D51*
%TO.P,Q1,A1*%
%TO.N,BATT_RAW_N*%
X47900000Y-44600000D03*
%TO.P,Q1,A2*%
%TO.N,GND*%
X47900000Y-43950000D03*
%TO.P,Q1,B1*%
%TO.N,DO_GATE*%
X48550000Y-44600000D03*
%TO.P,Q1,B2*%
%TO.N,CO_GATE*%
X48550000Y-43950000D03*
%TO.P,Q1,C1*%
%TO.N,BATT_RAW_N*%
X49200000Y-44600000D03*
%TO.P,Q1,C2*%
%TO.N,GND*%
X49200000Y-43950000D03*
%TD*%
D15*
%TO.P,J32,1*%
%TO.N,UART_RX*%
X58500000Y-25000000D03*
%TD*%
D52*
%TO.P,L1,1*%
%TO.N,SW_5V*%
X19400000Y-61600000D03*
%TO.P,L1,2*%
%TO.N,+5V*%
X22400000Y-61600000D03*
%TD*%
D23*
%TO.P,C21,1*%
%TO.N,BAT_SYS*%
X41950000Y-43900000D03*
%TO.P,C21,2*%
%TO.N,GND*%
X43500000Y-43900000D03*
%TD*%
D16*
%TO.P,TP10,1*%
%TO.N,CHG_STAT*%
X58600000Y-34400000D03*
%TD*%
D53*
%TO.P,U1,1*%
%TO.N,PG_STAT*%
X28037500Y-32750000D03*
%TO.P,U1,2*%
%TO.N,CHG_STAT*%
X28037500Y-33250000D03*
%TO.P,U1,3*%
%TO.N,GND*%
X28037500Y-33750000D03*
%TO.P,U1,4*%
%TO.N,I2C_SDA*%
X28037500Y-34250000D03*
%TO.P,U1,5*%
%TO.N,I2C_SCL*%
X28037500Y-34750000D03*
%TO.P,U1,6*%
%TO.N,N/C*%
X28037500Y-35250000D03*
D54*
%TO.P,U1,7*%
%TO.N,TS*%
X28750000Y-35962500D03*
%TO.P,U1,8*%
%TO.N,ILIM*%
X29250000Y-35962500D03*
%TO.P,U1,9*%
%TO.N,CELL_MID*%
X29750000Y-35962500D03*
%TO.P,U1,10*%
%TO.N,CBSET*%
X30250000Y-35962500D03*
%TO.P,U1,11*%
%TO.N,REGN*%
X30750000Y-35962500D03*
%TO.P,U1,12*%
%TO.N,BTST*%
X31250000Y-35962500D03*
D53*
%TO.P,U1,13*%
%TO.N,PACK_P*%
X31962500Y-35250000D03*
%TO.P,U1,14*%
X31962500Y-34750000D03*
%TO.P,U1,15*%
X31962500Y-34250000D03*
%TO.P,U1,16*%
X31962500Y-33750000D03*
%TO.P,U1,17*%
%TO.N,CHG_SW*%
X31962500Y-33250000D03*
%TO.P,U1,18*%
X31962500Y-32750000D03*
D54*
%TO.P,U1,19*%
%TO.N,GND*%
X31250000Y-32037500D03*
%TO.P,U1,20*%
X30750000Y-32037500D03*
%TO.P,U1,21*%
%TO.N,PMID*%
X30250000Y-32037500D03*
%TO.P,U1,22*%
X29750000Y-32037500D03*
%TO.P,U1,23*%
%TO.N,CHG_IN*%
X29250000Y-32037500D03*
%TO.P,U1,24*%
%TO.N,GND*%
X28750000Y-32037500D03*
D55*
%TO.P,U1,25*%
X30000000Y-34000000D03*
%TD*%
D14*
%TO.P,R26,1*%
%TO.N,MCP_GPA3*%
X149700000Y-20950000D03*
%TO.P,R26,2*%
%TO.N,EXP_GPA3*%
X149700000Y-22600000D03*
%TD*%
D42*
%TO.P,C13,1*%
%TO.N,+5V*%
X32200000Y-60600000D03*
%TO.P,C13,2*%
%TO.N,GND*%
X30300000Y-60600000D03*
%TD*%
D23*
%TO.P,C18,1*%
%TO.N,+3V3_SW_LOGIC*%
X141925000Y-50400000D03*
%TO.P,C18,2*%
%TO.N,GND*%
X143475000Y-50400000D03*
%TD*%
D15*
%TO.P,J95,1*%
%TO.N,EXP_GPA4*%
X162000000Y-52800000D03*
%TD*%
D49*
%TO.P,C16,1*%
%TO.N,BAT_SYS*%
X31700000Y-56600000D03*
%TO.P,C16,2*%
%TO.N,GND*%
X31700000Y-54700000D03*
%TD*%
D43*
%TO.P,J8,1*%
%TO.N,GND*%
X19750000Y-15950000D03*
%TO.P,J8,2*%
%TO.N,AIN0*%
X21000000Y-15950000D03*
%TO.P,J8,3*%
%TO.N,+3V3_SW*%
X22250000Y-15950000D03*
D44*
%TO.P,J8,MP*%
%TO.N,N/C*%
X17900000Y-12600000D03*
X24100000Y-12600000D03*
%TD*%
D23*
%TO.P,C19,1*%
%TO.N,+3V3_SW_LOGIC*%
X146925000Y-50400000D03*
%TO.P,C19,2*%
%TO.N,GND*%
X148475000Y-50400000D03*
%TD*%
D21*
%TO.P,R18,1*%
%TO.N,GPIO3*%
X88350000Y-42600000D03*
%TO.P,R18,2*%
%TO.N,CTRL_3V3_SW*%
X90000000Y-42600000D03*
%TD*%
D56*
%TO.P,U2,1*%
%TO.N,BATT_RAW_N*%
X65887500Y-32400000D03*
%TO.P,U2,2*%
%TO.N,BQ_SRN*%
X65887500Y-31900000D03*
%TO.P,U2,3*%
%TO.N,BQ_SRP*%
X65887500Y-31400000D03*
%TO.P,U2,4*%
%TO.N,TS*%
X65887500Y-30900000D03*
%TO.P,U2,5*%
%TO.N,I2C_SCL*%
X65887500Y-30400000D03*
%TO.P,U2,6*%
%TO.N,I2C_SDA*%
X65887500Y-29900000D03*
%TO.P,U2,7*%
%TO.N,BQ_DSG*%
X63437500Y-29900000D03*
%TO.P,U2,8*%
%TO.N,BQ_PACK*%
X63437500Y-30400000D03*
%TO.P,U2,9*%
%TO.N,BQ_CHG*%
X63437500Y-30900000D03*
%TO.P,U2,10*%
%TO.N,BQ_PBI*%
X63437500Y-31400000D03*
%TO.P,U2,11*%
%TO.N,PROT_VDD*%
X63437500Y-31900000D03*
%TO.P,U2,12*%
%TO.N,PROT_VC*%
X63437500Y-32400000D03*
D57*
%TO.P,U2,13*%
%TO.N,BATT_RAW_N*%
X64662500Y-31150000D03*
%TD*%
D21*
%TO.P,R6,1*%
%TO.N,REGN*%
X46650000Y-31100000D03*
%TO.P,R6,2*%
%TO.N,LED_CHG_A*%
X48300000Y-31100000D03*
%TD*%
D23*
%TO.P,C27,1*%
%TO.N,+3V3_SW_LOGIC*%
X106200000Y-53600000D03*
%TO.P,C27,2*%
%TO.N,GND*%
X107750000Y-53600000D03*
%TD*%
D47*
%TO.P,C30,1*%
%TO.N,BQ_PBI*%
X70800000Y-34975000D03*
%TO.P,C30,2*%
%TO.N,BATT_RAW_N*%
X70800000Y-33425000D03*
%TD*%
D52*
%TO.P,L2,1*%
%TO.N,SW_3V3*%
X99900000Y-24000000D03*
%TO.P,L2,2*%
%TO.N,+3V3*%
X102900000Y-24000000D03*
%TD*%
D47*
%TO.P,C31,1*%
%TO.N,BQ_SRN*%
X71800000Y-30175000D03*
%TO.P,C31,2*%
%TO.N,BQ_SRP*%
X71800000Y-28625000D03*
%TD*%
%TO.P,C29,1*%
%TO.N,MCP_RESET*%
X144000000Y-58600000D03*
%TO.P,C29,2*%
%TO.N,GND*%
X144000000Y-57050000D03*
%TD*%
D14*
%TO.P,R35,1*%
%TO.N,MCP_GPB4*%
X136400000Y-25600000D03*
%TO.P,R35,2*%
%TO.N,EXP_GPB4*%
X136400000Y-27250000D03*
%TD*%
D58*
%TO.P,U5,1*%
%TO.N,GND*%
X93900000Y-24700000D03*
%TO.P,U5,2*%
%TO.N,N/C*%
X93900000Y-24200000D03*
%TO.P,U5,3*%
%TO.N,GND*%
X93900000Y-23700000D03*
%TO.P,U5,4*%
%TO.N,AIN0*%
X93900000Y-23200000D03*
%TO.P,U5,5*%
%TO.N,AIN1*%
X93900000Y-22700000D03*
%TO.P,U5,6*%
%TO.N,AIN2*%
X89600000Y-22700000D03*
%TO.P,U5,7*%
%TO.N,AIN3*%
X89600000Y-23200000D03*
%TO.P,U5,8*%
%TO.N,+3V3_SW_LOGIC*%
X89600000Y-23700000D03*
%TO.P,U5,9*%
%TO.N,I2C_SDA*%
X89600000Y-24200000D03*
%TO.P,U5,10*%
%TO.N,I2C_SCL*%
X89600000Y-24700000D03*
%TD*%
D14*
%TO.P,R27,1*%
%TO.N,MCP_GPA4*%
X149200000Y-45150000D03*
%TO.P,R27,2*%
%TO.N,EXP_GPA4*%
X149200000Y-46800000D03*
%TD*%
D15*
%TO.P,J914,1*%
%TO.N,EXP_GPB5*%
X152800000Y-68600000D03*
%TD*%
D14*
%TO.P,R40,1*%
%TO.N,MCP_A1*%
X138000000Y-41950000D03*
%TO.P,R40,2*%
%TO.N,GND*%
X138000000Y-43600000D03*
%TD*%
D15*
%TO.P,J91,1*%
%TO.N,EXP_GPA0*%
X115800000Y-14400000D03*
%TD*%
D11*
%TO.P,R31,1*%
%TO.N,MCP_GPB0*%
X154200000Y-27250000D03*
%TO.P,R31,2*%
%TO.N,EXP_GPB0*%
X154200000Y-25600000D03*
%TD*%
D15*
%TO.P,J97,1*%
%TO.N,EXP_GPA6*%
X162000000Y-42800000D03*
%TD*%
D14*
%TO.P,R37,1*%
%TO.N,MCP_GPB6*%
X138800000Y-25550000D03*
%TO.P,R37,2*%
%TO.N,EXP_GPB6*%
X138800000Y-27200000D03*
%TD*%
D15*
%TO.P,J37,1*%
%TO.N,GPIO14*%
X117200000Y-40200000D03*
%TD*%
D16*
%TO.P,TP1,1*%
%TO.N,USB_VBUS*%
X16000000Y-40000000D03*
%TD*%
D11*
%TO.P,R21,1*%
%TO.N,BQ_DSG*%
X66000000Y-37650000D03*
%TO.P,R21,2*%
%TO.N,DO_GATE*%
X66000000Y-36000000D03*
%TD*%
D21*
%TO.P,R22,1*%
%TO.N,BQ_CHG*%
X46850000Y-41100000D03*
%TO.P,R22,2*%
%TO.N,CO_GATE*%
X48500000Y-41100000D03*
%TD*%
D59*
%TO.N,GND*%
X86762700Y-28716800D03*
X144233600Y-51158600D03*
X108732800Y-53297900D03*
X144728000Y-53542700D03*
X93900000Y-25379400D03*
X74599100Y-24172200D03*
X92649400Y-23700000D03*
X17321000Y-54643600D03*
X146309300Y-71537400D03*
X85854900Y-16419600D03*
X91148700Y-16493200D03*
X31541100Y-44266100D03*
X47924200Y-43293400D03*
X139940800Y-29352800D03*
X31901900Y-31737600D03*
X26818200Y-60012300D03*
X132784400Y-26391800D03*
X149438900Y-50928900D03*
X17912300Y-71112300D03*
X95156200Y-54966300D03*
X155146400Y-21200000D03*
X139456600Y-50306500D03*
X136195300Y-41991900D03*
X132845400Y-41745400D03*
X71793900Y-45940000D03*
X44963000Y-33715200D03*
X27822500Y-64437600D03*
X132751200Y-33432300D03*
X148946900Y-16753100D03*
X18944600Y-16755400D03*
X84594900Y-24355600D03*
X49754600Y-43578300D03*
X30801800Y-53801800D03*
X136931700Y-16546000D03*
X36800000Y-32596400D03*
X80717700Y-44908000D03*
X22355200Y-25232700D03*
X56395900Y-46423700D03*
X154433000Y-50304900D03*
X19991800Y-55497700D03*
X28205600Y-55509700D03*
X137256800Y-44406800D03*
X29290500Y-60399200D03*
X25990500Y-26603700D03*
X31542200Y-47342200D03*
X138744200Y-44344200D03*
X44452800Y-44318900D03*
X39056000Y-39107300D03*
X30944600Y-16755400D03*
X136975600Y-20374900D03*
X143240900Y-56290900D03*
X29191000Y-65269900D03*
X102304900Y-53397600D03*
X59771200Y-29643900D03*
X24004100Y-34197100D03*
X32418000Y-29353900D03*
X28091600Y-31793500D03*
%TO.N,+3V3_SW_LOGIC*%
X127648500Y-18000300D03*
X88360200Y-23496500D03*
X139922700Y-42645700D03*
X143594000Y-32434500D03*
%TO.N,AIN4*%
X158659900Y-14554100D03*
X157676900Y-21262900D03*
%TO.N,I2C_SDA*%
X66434800Y-29352700D03*
X159645700Y-27001400D03*
X26463900Y-33172200D03*
X82646300Y-28487700D03*
X118480700Y-20252900D03*
%TO.N,I2C_SCL*%
X137784300Y-27228200D03*
X70002000Y-30036500D03*
X26538300Y-34896300D03*
X91510300Y-24970900D03*
X158528400Y-21345700D03*
D60*
%TO.N,PACK_P*%
X34332300Y-42258400D03*
X36274700Y-37300000D03*
X56125400Y-37820500D03*
D59*
%TO.N,EXP_GPB2*%
X147576200Y-26100300D03*
X131449000Y-24116900D03*
%TO.N,MCP_INTB*%
X146579700Y-55422200D03*
X142059300Y-41821900D03*
D61*
%TO.N,+5V*%
X22001700Y-59029100D03*
X38048300Y-57302600D03*
D59*
%TO.N,EXP_GPA2*%
X136892800Y-22573800D03*
X127700000Y-14886300D03*
D61*
%TO.N,BAT_SYS*%
X77944800Y-25882000D03*
X51432500Y-38678000D03*
X50185400Y-26219900D03*
D60*
%TO.N,USB_VBUS*%
X20000300Y-41659600D03*
X74680100Y-51535000D03*
X80574800Y-43778400D03*
%TO.N,CHG_IN*%
X23188800Y-71255900D03*
X20600000Y-39550300D03*
D62*
%TO.N,+3V3_SW*%
X75000000Y-27825400D03*
X132239400Y-19810600D03*
X35629000Y-20451500D03*
D59*
%TO.N,GPIO2*%
X117200000Y-32142300D03*
X51204500Y-47675600D03*
%TO.N,TS*%
X27185200Y-35980200D03*
X26852300Y-40817100D03*
X67309800Y-30787100D03*
X27241600Y-47090000D03*
%TO.N,EXP_GPB3*%
X157613000Y-61671800D03*
X146615500Y-28415900D03*
X129356500Y-28060900D03*
%TO.N,EXP_GPA4*%
X132841400Y-43855800D03*
X148459800Y-46059800D03*
%TO.N,EXP_GPA6*%
X128488300Y-41164400D03*
X154009600Y-44371400D03*
%TO.N,MCP_RESET*%
X140497100Y-40962400D03*
X143662700Y-55392600D03*
%TO.N,CBSET*%
X31263500Y-39483800D03*
X29615300Y-44501000D03*
%TO.N,EXP_GPA3*%
X149747300Y-23934200D03*
X160597100Y-55922200D03*
%TO.N,PMID*%
X28601800Y-26130200D03*
X28664500Y-30433000D03*
%TO.N,EXP_GPB4*%
X133747700Y-35893200D03*
X135947000Y-28877500D03*
X160296100Y-64380300D03*
%TO.N,EXP_GPB5*%
X153343400Y-67309800D03*
X139708400Y-35339900D03*
X144403000Y-28442100D03*
%TO.N,EXP_GPB6*%
X151101400Y-66063900D03*
X137901700Y-31693000D03*
%TO.N,EXP_GPB7*%
X161437700Y-67408200D03*
X157613000Y-35339900D03*
%TO.N,CELL_MID*%
X48173400Y-34919500D03*
X39082200Y-57402800D03*
X39082200Y-43924200D03*
D61*
%TO.N,+5V_SW*%
X91962800Y-53699400D03*
D59*
%TO.N,PROT_VDD*%
X58279300Y-31865000D03*
X52350800Y-40365100D03*
%TO.N,MCP_GPA1*%
X134204000Y-21376200D03*
X142908300Y-37415700D03*
%TO.N,EXP_GPA1*%
X137923700Y-19537400D03*
X120704200Y-14852500D03*
%TO.N,BQ_PACK*%
X44217200Y-36568200D03*
X61817600Y-30587600D03*
%TO.N,EN_5V*%
X24978500Y-58820300D03*
X26602700Y-68509700D03*
%TO.N,LED_PGOOD_A*%
X26571500Y-74867200D03*
X49217000Y-36071300D03*
%TO.N,CTRL_5V_SW*%
X50185400Y-50166300D03*
%TO.N,EXP_GPA0*%
X117077900Y-14626200D03*
X140133500Y-19554900D03*
X146331500Y-40903500D03*
%TO.N,PG_STAT*%
X58600000Y-40422400D03*
X24254700Y-70719400D03*
X27120200Y-32638500D03*
X24605900Y-41003400D03*
%TO.N,UART_TX*%
X58447800Y-21310700D03*
X85234300Y-52353300D03*
%TO.N,BATT_RAW_N*%
X46600000Y-48300000D03*
X46600000Y-44600000D03*
%TO.N,LED_CHG_A*%
X47553500Y-38852400D03*
X18052200Y-75073600D03*
%TO.N,CHG_STAT*%
X27094700Y-33709500D03*
X22361600Y-75176400D03*
X55073000Y-34116900D03*
%TO.N,AIN2*%
X139000000Y-14590900D03*
X89715800Y-21321400D03*
%TO.N,MCP_INTA*%
X144621900Y-42111700D03*
X146809300Y-59375000D03*
%TO.N,BTST*%
X35283600Y-36028900D03*
X32038900Y-36380700D03*
%TO.N,MCP_GPB4*%
X147653000Y-28556100D03*
X133897800Y-28455000D03*
%TO.N,MCP_GPA2*%
X145540900Y-20670000D03*
X146065500Y-37586500D03*
%TO.N,MCP_GPA3*%
X150692800Y-20770000D03*
X148264000Y-37586500D03*
%TO.N,AIN1*%
X92748000Y-22282800D03*
X33544500Y-17222300D03*
%TO.N,AIN3*%
X151120900Y-17315600D03*
X91054700Y-23646200D03*
%TO.N,UART_RX*%
X59137700Y-26800500D03*
X88978700Y-52504400D03*
%TO.N,DO_GATE*%
X48233500Y-42085600D03*
X64994300Y-35540700D03*
%TO.N,AIN0*%
X21000000Y-14564400D03*
X94540200Y-22026200D03*
%TO.N,BQ_DSG*%
X64569000Y-38332900D03*
X60923600Y-30761400D03*
%TO.N,BQ_CHG*%
X62625000Y-30796000D03*
X45946100Y-41100000D03*
%TO.N,BQ_PBI*%
X63823900Y-28679900D03*
X68594000Y-34913000D03*
%TD*%
%TO.N,ILIM*%
D10*
X25000000Y-35800000D02*
X25911200Y-36711200D01*
X29250000Y-36390500D02*
X29250000Y-35962500D01*
X25911200Y-36711200D02*
X28929300Y-36711200D01*
X28929300Y-36711200D02*
X29250000Y-36390500D01*
%TO.N,GND*%
X55448700Y-46423700D02*
X56395900Y-46423700D01*
X30000000Y-34000000D02*
X29750000Y-33750000D01*
X72458300Y-49048300D02*
X73530000Y-50120000D01*
X47924200Y-43925800D02*
X47900000Y-43950000D01*
X30800000Y-46600000D02*
X31542200Y-47342200D01*
X148946900Y-16753100D02*
X149750000Y-15950000D01*
X72375000Y-45358900D02*
X72375000Y-45000000D01*
X25000000Y-34150000D02*
X24952900Y-34197100D01*
X22355200Y-25232700D02*
X23467300Y-25232700D01*
X30775000Y-43500000D02*
X31541100Y-44266100D01*
X132067700Y-33432300D02*
X132751200Y-33432300D01*
X26803700Y-26603700D02*
X27000000Y-26800000D01*
X149003900Y-50928900D02*
X148475000Y-50400000D01*
X137256800Y-44406800D02*
X138000000Y-45150000D01*
X49571700Y-43578300D02*
X49200000Y-43950000D01*
X30944600Y-16755400D02*
X31750000Y-15950000D01*
X136195300Y-41991900D02*
X135208100Y-41991900D01*
X17321000Y-54643600D02*
X16356400Y-54643600D01*
X19991800Y-55497700D02*
X20902300Y-55497700D01*
X49754600Y-43578300D02*
X49571700Y-43578300D01*
X131600000Y-33900000D02*
X132067700Y-33432300D01*
X146520200Y-71748300D02*
X147000000Y-71748300D01*
X136931700Y-16546000D02*
X137154000Y-16546000D01*
X55325000Y-46300000D02*
X55448700Y-46423700D01*
X26818200Y-60012300D02*
X26600000Y-60230500D01*
X73800000Y-24850000D02*
X74477800Y-24172200D01*
X71960000Y-50200000D02*
X71960000Y-49048300D01*
X138475000Y-50400000D02*
X138568500Y-50306500D01*
X146309300Y-71537400D02*
X146520200Y-71748300D01*
X80101700Y-49048300D02*
X79030000Y-50120000D01*
X140122800Y-29352800D02*
X139940800Y-29352800D01*
X18944600Y-16755400D02*
X19750000Y-15950000D01*
X29750000Y-33750000D02*
X28037500Y-33750000D01*
X138568500Y-50306500D02*
X139456600Y-50306500D01*
X31446100Y-29353900D02*
X31400000Y-29400000D01*
X80600000Y-50200000D02*
X80600000Y-49048300D01*
X92293200Y-16493200D02*
X92400000Y-16600000D01*
X74477800Y-24172200D02*
X74599100Y-24172200D01*
X47924200Y-43293400D02*
X47924200Y-43925800D01*
X97750000Y-54260400D02*
X97750000Y-53950000D01*
X91148700Y-16493200D02*
X92293200Y-16493200D01*
X80717700Y-44908000D02*
X80625700Y-45000000D01*
X71960000Y-49048300D02*
X72458300Y-49048300D01*
X18500000Y-71700000D02*
X17912300Y-71112300D01*
X31250000Y-32037500D02*
X30750000Y-32037500D01*
X29630100Y-65269900D02*
X30200000Y-64700000D01*
X31549900Y-31737600D02*
X31250000Y-32037500D01*
X36800000Y-31600000D02*
X36800000Y-32596400D01*
X43918900Y-44318900D02*
X43500000Y-43900000D01*
X30750000Y-32037500D02*
X30750000Y-33250000D01*
X28750000Y-32037500D02*
X28506000Y-31793500D01*
X30300000Y-60600000D02*
X30099200Y-60399200D01*
X131691800Y-26391800D02*
X132784400Y-26391800D01*
X97750000Y-54261262D02*
X97750000Y-53950000D01*
X71793900Y-45940000D02*
X72375000Y-45358900D01*
X16356400Y-54643600D02*
X16300000Y-54700000D01*
X86108200Y-28716800D02*
X85825000Y-29000000D01*
X59551700Y-30000000D02*
X59771200Y-29780500D01*
X39056000Y-39107300D02*
X37892700Y-39107300D01*
X85854900Y-16419600D02*
X86919600Y-16419600D01*
X108052100Y-53297900D02*
X108732800Y-53297900D01*
X80600000Y-49048300D02*
X80101700Y-49048300D01*
X24952900Y-34197100D02*
X24004100Y-34197100D01*
X138000000Y-43600000D02*
X138744200Y-44344200D01*
X80625700Y-45000000D02*
X79800000Y-45000000D01*
X154433000Y-50304900D02*
X153570100Y-50304900D01*
X95156200Y-54966300D02*
X95339900Y-55150000D01*
X30801800Y-53801800D02*
X31700000Y-54700000D01*
X143475000Y-50400000D02*
X144233600Y-51158600D01*
X95339900Y-55150000D02*
X96861262Y-55150000D01*
X27709700Y-55509700D02*
X27400000Y-55200000D01*
X137154000Y-16546000D02*
X137750000Y-15950000D01*
X131600000Y-26300000D02*
X131691800Y-26391800D01*
X143240900Y-56290900D02*
X144000000Y-57050000D01*
X140770000Y-30000000D02*
X140122800Y-29352800D01*
X102304900Y-53397600D02*
X102052400Y-53397600D01*
X32418000Y-29353900D02*
X31446100Y-29353900D01*
X30099200Y-60399200D02*
X29290500Y-60399200D01*
X37892700Y-39107300D02*
X37800000Y-39200000D01*
X153570100Y-50304900D02*
X153475000Y-50400000D01*
X92649400Y-23700000D02*
X93900000Y-23700000D01*
X83400000Y-24700000D02*
X83744400Y-24355600D01*
X86919600Y-16419600D02*
X87100000Y-16600000D01*
X83744400Y-24355600D02*
X84594900Y-24355600D01*
X102052400Y-53397600D02*
X101500000Y-53950000D01*
X59771200Y-29780500D02*
X59771200Y-29643900D01*
X27062400Y-64437600D02*
X26800000Y-64700000D01*
X26600000Y-60230500D02*
X26600000Y-61000000D01*
X107750000Y-53600000D02*
X108052100Y-53297900D01*
X137449900Y-20374900D02*
X137800000Y-20725000D01*
X86762700Y-28716800D02*
X86108200Y-28716800D01*
X31901900Y-31737600D02*
X31549900Y-31737600D01*
X44452800Y-44318900D02*
X43918900Y-44318900D01*
X147000000Y-72800000D02*
X147000000Y-71748300D01*
X135208100Y-41991900D02*
X135200000Y-42000000D01*
X30750000Y-33250000D02*
X30000000Y-34000000D01*
X136975600Y-20374900D02*
X137449900Y-20374900D01*
X44000000Y-33900000D02*
X44778200Y-33900000D01*
X20902300Y-55497700D02*
X21000000Y-55400000D01*
X149438900Y-50928900D02*
X149003900Y-50928900D01*
X93900000Y-24700000D02*
X93900000Y-25379400D01*
X144232300Y-53542700D02*
X143775000Y-54000000D01*
X156400000Y-21200000D02*
X155146400Y-21200000D01*
X25990500Y-26603700D02*
X26803700Y-26603700D01*
X28205600Y-55509700D02*
X27709700Y-55509700D01*
X28506000Y-31793500D02*
X28091600Y-31793500D01*
X96861262Y-55150000D02*
X97750000Y-54261262D01*
X144728000Y-53542700D02*
X144232300Y-53542700D01*
X44778200Y-33900000D02*
X44963000Y-33715200D01*
X29191000Y-65269900D02*
X29630100Y-65269900D01*
X132845400Y-41745400D02*
X131779600Y-41745400D01*
X27822500Y-64437600D02*
X27062400Y-64437600D01*
X58500000Y-30000000D02*
X59551700Y-30000000D01*
X131779600Y-41745400D02*
X131675000Y-41850000D01*
X23467300Y-25232700D02*
X23600000Y-25100000D01*
%TO.N,+3V3_SW_LOGIC*%
X151798200Y-56598200D02*
X151798200Y-62950100D01*
X143594000Y-31743400D02*
X152166200Y-31743400D01*
X136925000Y-50400000D02*
X137703100Y-49621900D01*
X143372200Y-31743400D02*
X143594000Y-31743400D01*
X151798200Y-62950100D02*
X147000000Y-67748300D01*
X159660800Y-24860800D02*
X159660800Y-21452700D01*
X143600000Y-43650000D02*
X142724400Y-43650000D01*
X151925000Y-50400000D02*
X151000000Y-51325000D01*
X127648500Y-18000300D02*
X127648500Y-18424800D01*
X160800000Y-26000000D02*
X159660800Y-24860800D01*
X160800000Y-26706300D02*
X160800000Y-26000000D01*
X161559400Y-19700800D02*
X156899200Y-19700800D01*
X157625000Y-26284600D02*
X158943500Y-27603100D01*
X147735300Y-49589700D02*
X151114700Y-49589700D01*
X159913500Y-21200000D02*
X160700000Y-21200000D01*
X146125600Y-49600600D02*
X146925000Y-50400000D01*
X137703100Y-49621900D02*
X141146900Y-49621900D01*
X142040000Y-30411200D02*
X143372200Y-31743400D01*
X88563700Y-23700000D02*
X88360200Y-23496500D01*
X161526400Y-21200000D02*
X161732900Y-20993500D01*
X142040000Y-30000000D02*
X142040000Y-30411200D01*
X146925000Y-50400000D02*
X147735300Y-49589700D01*
X161732900Y-19874300D02*
X161559400Y-19700800D01*
X127095800Y-18977500D02*
X125777500Y-18977500D01*
X151000000Y-55800000D02*
X151798200Y-56598200D01*
X158943500Y-27603100D02*
X159903200Y-27603100D01*
X89600000Y-23700000D02*
X88563700Y-23700000D01*
X142724400Y-49600600D02*
X146125600Y-49600600D01*
X152166200Y-31743400D02*
X157625000Y-26284600D01*
X141925000Y-53700000D02*
X142225000Y-54000000D01*
X141925000Y-50400000D02*
X141925000Y-53700000D01*
X161732900Y-20993500D02*
X161732900Y-19874300D01*
X141925000Y-50400000D02*
X142724400Y-49600600D01*
X156899200Y-19700800D02*
X156400000Y-20200000D01*
X142724400Y-43650000D02*
X142724400Y-49600600D01*
X106200000Y-53600000D02*
X109400000Y-50400000D01*
X141146900Y-49621900D02*
X141925000Y-50400000D01*
X139922700Y-42772700D02*
X139922700Y-42645700D01*
X160700000Y-21200000D02*
X161526400Y-21200000D01*
X147000000Y-68800000D02*
X147000000Y-67748300D01*
X109400000Y-50400000D02*
X136925000Y-50400000D01*
X127648500Y-18424800D02*
X127095800Y-18977500D01*
X157625000Y-26284600D02*
X157625000Y-26000000D01*
X151114700Y-49589700D02*
X151925000Y-50400000D01*
X125777500Y-18977500D02*
X125000000Y-18200000D01*
X151000000Y-51325000D02*
X151000000Y-55800000D01*
X159903200Y-27603100D02*
X160800000Y-26706300D01*
X142724400Y-43650000D02*
X140800000Y-43650000D01*
X140800000Y-43650000D02*
X139922700Y-42772700D01*
X159660800Y-21452700D02*
X159913500Y-21200000D01*
X143594000Y-31743400D02*
X143594000Y-32434500D01*
%TO.N,AIN4*%
X157239800Y-21700000D02*
X157676900Y-21262900D01*
X158659900Y-14554100D02*
X158600000Y-14494200D01*
X158600000Y-14494200D02*
X158600000Y-13300000D01*
X156400000Y-21700000D02*
X157239800Y-21700000D01*
%TO.N,AIN5*%
X156400000Y-22200000D02*
X155242300Y-22200000D01*
X154517600Y-19547300D02*
X160764800Y-13300100D01*
X154517600Y-21475300D02*
X154517600Y-19547300D01*
X160764800Y-13300100D02*
X160764800Y-13300000D01*
X155242300Y-22200000D02*
X154517600Y-21475300D01*
X160764800Y-13300000D02*
X162400000Y-13300000D01*
%TO.N,AIN6*%
X158600000Y-16600000D02*
X159409800Y-15790200D01*
X163206400Y-16202800D02*
X163206400Y-20726700D01*
X163206400Y-20726700D02*
X161733100Y-22200000D01*
X159409800Y-15790200D02*
X162793800Y-15790200D01*
X161733100Y-22200000D02*
X160700000Y-22200000D01*
X162793800Y-15790200D02*
X163206400Y-16202800D01*
%TO.N,AIN7*%
X162400000Y-16600000D02*
X162400000Y-20912000D01*
X162400000Y-20912000D02*
X161612000Y-21700000D01*
X161612000Y-21700000D02*
X160700000Y-21700000D01*
%TO.N,I2C_SDA*%
X65887500Y-29900000D02*
X66434800Y-29352700D01*
X159150000Y-21327300D02*
X159150000Y-26000000D01*
X26834500Y-34311200D02*
X26463900Y-33940600D01*
X160700000Y-20700000D02*
X159777300Y-20700000D01*
X27976300Y-34311200D02*
X26834500Y-34311200D01*
X159645700Y-27001400D02*
X159150000Y-26505700D01*
X136960000Y-30000000D02*
X122720000Y-30000000D01*
X118480700Y-20252900D02*
X118304600Y-20252900D01*
X28037500Y-34250000D02*
X27976300Y-34311200D01*
X89600000Y-24200000D02*
X86934000Y-24200000D01*
X159150000Y-26505700D02*
X159150000Y-26000000D01*
X26463900Y-33940600D02*
X26463900Y-33172200D01*
X122720000Y-30000000D02*
X122600000Y-29880000D01*
X118304600Y-20252900D02*
X118251700Y-20200000D01*
X117200000Y-20200000D02*
X118251700Y-20200000D01*
X86934000Y-24200000D02*
X82646300Y-28487700D01*
X159777300Y-20700000D02*
X159150000Y-21327300D01*
%TO.N,I2C_SCL*%
X159674100Y-20200000D02*
X158528400Y-21345700D01*
X91239400Y-24700000D02*
X91510300Y-24970900D01*
X117200000Y-25200000D02*
X117200000Y-26251700D01*
X66846100Y-30400000D02*
X65887500Y-30400000D01*
X122722200Y-31773900D02*
X117200000Y-26251700D01*
X70002000Y-30036500D02*
X67209600Y-30036500D01*
X67209600Y-30036500D02*
X66846100Y-30400000D01*
X136899500Y-31773900D02*
X122722200Y-31773900D01*
X138230000Y-30000000D02*
X137784300Y-29554300D01*
X122722200Y-31773900D02*
X122722200Y-32297800D01*
X117200000Y-25200000D02*
X117200000Y-24148300D01*
X26538300Y-34896300D02*
X26684600Y-34750000D01*
X126650000Y-18200000D02*
X125870900Y-17420900D01*
X138230000Y-30443400D02*
X136899500Y-31773900D01*
X123927400Y-17420900D02*
X117200000Y-24148300D01*
X137784300Y-29554300D02*
X137784300Y-27228200D01*
X160700000Y-20200000D02*
X159674100Y-20200000D01*
X89600000Y-24700000D02*
X91239400Y-24700000D01*
X122722200Y-32297800D02*
X122600000Y-32420000D01*
X26684600Y-34750000D02*
X28037500Y-34750000D01*
X125870900Y-17420900D02*
X123927400Y-17420900D01*
X138230000Y-30000000D02*
X138230000Y-30443400D01*
%TO.N,PACK_P*%
D63*
X36589500Y-36985100D02*
X36541100Y-36936700D01*
X35937900Y-37080600D02*
X34226200Y-37080600D01*
X22000000Y-44000000D02*
X19400000Y-46600000D01*
D64*
X32127100Y-35250000D02*
X31962500Y-35250000D01*
D63*
X22000000Y-44000000D02*
X22400000Y-43600000D01*
D64*
X31962500Y-34250000D02*
X31962500Y-33750000D01*
D63*
X32395600Y-35250000D02*
X32127100Y-35250000D01*
X25400000Y-43600000D02*
X26741600Y-42258400D01*
X56125400Y-37820500D02*
X54529500Y-37820500D01*
D64*
X31962500Y-35250000D02*
X31962500Y-34750000D01*
D63*
X36589500Y-36985200D02*
X36589500Y-36985100D01*
X34332300Y-42258400D02*
X34983400Y-42258400D01*
X22400000Y-43600000D02*
X25400000Y-43600000D01*
X19400000Y-46600000D02*
X19400000Y-47800000D01*
X36274700Y-37300000D02*
X37800000Y-37300000D01*
X36541100Y-36936700D02*
X36081800Y-36936700D01*
D64*
X31962500Y-34750000D02*
X31962500Y-34250000D01*
D63*
X54529500Y-37820500D02*
X53500000Y-38850000D01*
X34983400Y-42258400D02*
X36225000Y-43500000D01*
X34226200Y-37080600D02*
X32395600Y-35250000D01*
X36081800Y-36936700D02*
X35937900Y-37080600D01*
X26741600Y-42258400D02*
X34332300Y-42258400D01*
X36274700Y-37300000D02*
X36589500Y-36985200D01*
%TO.N,MCP_GPB2*%
D10*
X149660000Y-30000000D02*
X149660000Y-26660000D01*
X149660000Y-26660000D02*
X148600000Y-25600000D01*
%TO.N,EXP_GPB2*%
X129325000Y-26240900D02*
X131449000Y-24116900D01*
X129400000Y-15451700D02*
X129400000Y-22067900D01*
X147576200Y-26226200D02*
X148600000Y-27250000D01*
X129400000Y-14400000D02*
X129400000Y-15451700D01*
X129400000Y-22067900D02*
X131449000Y-24116900D01*
X147576200Y-26100300D02*
X147576200Y-26226200D01*
X129325000Y-26300000D02*
X129325000Y-26240900D01*
%TO.N,MCP_A0*%
X134421500Y-40568500D02*
X135690000Y-39300000D01*
X135200000Y-43650000D02*
X134421500Y-42871500D01*
X134421500Y-42871500D02*
X134421500Y-40568500D01*
%TO.N,MCP_INTB*%
X147200000Y-55748300D02*
X146905800Y-55748300D01*
X142059300Y-41821900D02*
X140978100Y-41821900D01*
X147200000Y-56800000D02*
X147200000Y-55748300D01*
X141098800Y-39628800D02*
X140770000Y-39300000D01*
X140800000Y-42000000D02*
X141098800Y-41701200D01*
X146905800Y-55748300D02*
X146579700Y-55422200D01*
X141098800Y-41701200D02*
X141098800Y-39628800D01*
X140978100Y-41821900D02*
X140800000Y-42000000D01*
%TO.N,+5V*%
D65*
X34000000Y-60600000D02*
X36800000Y-57800000D01*
X37297400Y-57302600D02*
X38048300Y-57302600D01*
X21914700Y-59116100D02*
X16833900Y-59116100D01*
X32100000Y-64700000D02*
X32200000Y-64600000D01*
X16833900Y-59116100D02*
X16100000Y-59850000D01*
X32200000Y-64600000D02*
X32200000Y-60600000D01*
X22400000Y-61600000D02*
X22400000Y-59601400D01*
X36800000Y-57800000D02*
X37297400Y-57302600D01*
X22001700Y-59029100D02*
X21914700Y-59116100D01*
X22400000Y-59601400D02*
X21914700Y-59116100D01*
X32200000Y-60600000D02*
X34000000Y-60600000D01*
%TO.N,FB_5V*%
D10*
X19850000Y-58200000D02*
X16100000Y-58200000D01*
X21000000Y-57050000D02*
X19850000Y-58200000D01*
X21425000Y-57475000D02*
X21000000Y-57050000D01*
X25500000Y-57475000D02*
X21425000Y-57475000D01*
%TO.N,EXP_GPA2*%
X126000000Y-14400000D02*
X127051700Y-14400000D01*
X138413400Y-21995100D02*
X143795100Y-21995100D01*
X137800000Y-22608500D02*
X138413400Y-21995100D01*
X137800000Y-23000000D02*
X137800000Y-22608500D01*
X143795100Y-21995100D02*
X144400000Y-22600000D01*
X127051700Y-14400000D02*
X127538000Y-14886300D01*
X137765300Y-22573800D02*
X137800000Y-22608500D01*
X127538000Y-14886300D02*
X127700000Y-14886300D01*
X136892800Y-22573800D02*
X137765300Y-22573800D01*
%TO.N,BAT_SYS*%
D65*
X77944800Y-25144800D02*
X77600000Y-24800000D01*
X24900000Y-69400000D02*
X24900000Y-64700000D01*
X31700000Y-56600000D02*
X29147800Y-56600000D01*
X41950000Y-40135100D02*
X42306000Y-39779100D01*
X26801300Y-58954700D02*
X26565300Y-58954700D01*
X27400000Y-58356000D02*
X26801300Y-58954700D01*
X25000000Y-69500000D02*
X24900000Y-69400000D01*
X29147800Y-56600000D02*
X29147800Y-51347800D01*
X26565300Y-58954700D02*
X25050000Y-60470000D01*
X41950000Y-43900000D02*
X41950000Y-40135100D01*
X42306000Y-39779100D02*
X50331400Y-39779100D01*
X40422300Y-45427700D02*
X41950000Y-43900000D01*
X27400000Y-57475000D02*
X27400000Y-58356000D01*
X29147800Y-51347800D02*
X25400000Y-47600000D01*
X27572300Y-45427700D02*
X40422300Y-45427700D01*
X42250000Y-38600000D02*
X42250000Y-39723100D01*
X81125000Y-24700000D02*
X81469100Y-24700000D01*
X25400000Y-47600000D02*
X27572300Y-45427700D01*
X81469100Y-24800000D02*
X77600000Y-24800000D01*
X77944800Y-25882000D02*
X77944800Y-25144800D01*
X28275000Y-56600000D02*
X27400000Y-57475000D01*
X22200000Y-47800000D02*
X25200000Y-47800000D01*
X29147800Y-56600000D02*
X28275000Y-56600000D01*
X50331400Y-39779100D02*
X51432500Y-38678000D01*
X24900000Y-61150000D02*
X25050000Y-61000000D01*
D66*
X81469100Y-24800000D02*
X81469100Y-24700000D01*
D65*
X25200000Y-47800000D02*
X25400000Y-47600000D01*
X24900000Y-64700000D02*
X24900000Y-61150000D01*
X25050000Y-60470000D02*
X25050000Y-61000000D01*
X42250000Y-39723100D02*
X42306000Y-39779100D01*
%TO.N,MCP_GPA5*%
D10*
X148390000Y-41491100D02*
X149660000Y-40221100D01*
X149660000Y-40221100D02*
X149660000Y-39300000D01*
X149200000Y-43650000D02*
X148390000Y-42840000D01*
X148390000Y-42840000D02*
X148390000Y-41491100D01*
%TO.N,EXP_GPA5*%
X136525700Y-36798600D02*
X133733500Y-39590800D01*
X152200900Y-45125400D02*
X149200000Y-42124500D01*
X149200000Y-42124500D02*
X149200000Y-42000000D01*
X132743300Y-42800000D02*
X131675000Y-42800000D01*
X160948300Y-47800000D02*
X158273700Y-45125400D01*
X158273700Y-45125400D02*
X152200900Y-45125400D01*
X150295000Y-40905000D02*
X150295000Y-38246900D01*
X150295000Y-38246900D02*
X148846700Y-36798600D01*
X133733500Y-41809800D02*
X132743300Y-42800000D01*
X133733500Y-39590800D02*
X133733500Y-41809800D01*
X148846700Y-36798600D02*
X136525700Y-36798600D01*
X162000000Y-47800000D02*
X160948300Y-47800000D01*
X149200000Y-42000000D02*
X150295000Y-40905000D01*
%TO.N,USB_VBUS*%
D63*
X81813400Y-44454900D02*
X81813400Y-45309800D01*
D67*
X74680100Y-50199900D02*
X74760000Y-50120000D01*
X77800000Y-48788100D02*
X77800000Y-50120000D01*
D63*
X74680100Y-51372000D02*
X74680100Y-51535000D01*
X78335100Y-48788100D02*
X77800000Y-48788100D01*
X19200000Y-40859300D02*
X19200000Y-40000000D01*
X80574800Y-43778400D02*
X81136900Y-43778400D01*
X20000300Y-41659600D02*
X19200000Y-40859300D01*
X19200000Y-40000000D02*
X16000000Y-40000000D01*
X81136900Y-43778400D02*
X81813400Y-44454900D01*
D67*
X74680100Y-51372000D02*
X74680100Y-50199900D01*
D63*
X81813400Y-45309800D02*
X78335100Y-48788100D01*
%TO.N,CHG_IN*%
X35250000Y-31600000D02*
X35250000Y-30654000D01*
X25400000Y-39800000D02*
X22200000Y-39800000D01*
X22744700Y-71700000D02*
X23188800Y-71255900D01*
X20600000Y-31049400D02*
X23600000Y-28049400D01*
X20600000Y-38600000D02*
X20600000Y-31049400D01*
X21075200Y-39075100D02*
X20600000Y-38600000D01*
X22200000Y-39800000D02*
X22000000Y-40000000D01*
X27300000Y-28761900D02*
X27300000Y-30500000D01*
X22000000Y-40000000D02*
X21075200Y-39075100D01*
X35250000Y-30654000D02*
X32492100Y-27896100D01*
X23600000Y-28049400D02*
X23600000Y-27000000D01*
X20600000Y-71700000D02*
X22744700Y-71700000D01*
X28012500Y-28049400D02*
X27300000Y-28761900D01*
X28012500Y-28049400D02*
X23600000Y-28049400D01*
X32492100Y-27896100D02*
X28165800Y-27896100D01*
X20600000Y-39550300D02*
X21075200Y-39075100D01*
X28165800Y-27896100D02*
X28012500Y-28049400D01*
%TO.N,+3V3_SW*%
D68*
X140250000Y-15950000D02*
X140250000Y-16506600D01*
X152250000Y-15950000D02*
X152250000Y-15403100D01*
X133842000Y-18208000D02*
X132239400Y-19810600D01*
X152250000Y-15403100D02*
X151407700Y-14560800D01*
X152250000Y-15950000D02*
X152250000Y-20111100D01*
X35629000Y-17329000D02*
X35629000Y-20451500D01*
X22250000Y-15950000D02*
X23642800Y-14557200D01*
X155975000Y-23836100D02*
X155975000Y-26000000D01*
X151407700Y-14560800D02*
X141639200Y-14560800D01*
X140250000Y-16506600D02*
X138548600Y-18208000D01*
X33403900Y-14557200D02*
X34250000Y-15403300D01*
X75000000Y-27825400D02*
X75000000Y-29000000D01*
X141639200Y-14560800D02*
X140250000Y-15950000D01*
X23642800Y-14557200D02*
X33403900Y-14557200D01*
X138548600Y-18208000D02*
X133842000Y-18208000D01*
X34250000Y-15950000D02*
X35629000Y-17329000D01*
X34250000Y-15403300D02*
X34250000Y-15950000D01*
X152250000Y-20111100D02*
X155975000Y-23836100D01*
%TO.N,GPIO2*%
D10*
X49175000Y-52000000D02*
X49175000Y-49705100D01*
X117200000Y-32142300D02*
X117200000Y-30200000D01*
X49175000Y-49705100D02*
X51204500Y-47675600D01*
%TO.N,+3V3*%
D68*
X85736200Y-30365500D02*
X102900000Y-30365500D01*
X84301700Y-31800000D02*
X85736200Y-30365500D01*
X81498300Y-31323300D02*
X79175000Y-29000000D01*
X81498300Y-31800000D02*
X81498300Y-31323300D01*
X93600000Y-14700000D02*
X92400000Y-14700000D01*
X82900000Y-31800000D02*
X81498300Y-31800000D01*
X102900000Y-30365500D02*
X102900000Y-33600000D01*
X102900000Y-24000000D02*
X102900000Y-30365500D01*
X102900000Y-24000000D02*
X93600000Y-14700000D01*
X92400000Y-14700000D02*
X87100000Y-14700000D01*
X82900000Y-31800000D02*
X84301700Y-31800000D01*
%TO.N,TS*%
D10*
X27202900Y-35962500D02*
X27185200Y-35980200D01*
X28000000Y-39400000D02*
X26852300Y-40547700D01*
X67196900Y-30900000D02*
X67309800Y-30787100D01*
X28750000Y-35962500D02*
X27202900Y-35962500D01*
X65887500Y-30900000D02*
X67196900Y-30900000D01*
X27731600Y-46600000D02*
X27241600Y-47090000D01*
X26852300Y-40547700D02*
X26852300Y-40817100D01*
X29150000Y-46600000D02*
X27731600Y-46600000D01*
%TO.N,EXP_GPB3*%
X157400000Y-61884800D02*
X157613000Y-61671800D01*
X157400000Y-63800000D02*
X157400000Y-61884800D01*
X146615500Y-27665500D02*
X146200000Y-27250000D01*
X146615500Y-28415900D02*
X146615500Y-27665500D01*
X129325000Y-27250000D02*
X129325000Y-28029400D01*
X129325000Y-28029400D02*
X129356500Y-28060900D01*
%TO.N,EXP_GPA4*%
X131780800Y-43855800D02*
X131675000Y-43750000D01*
X162000000Y-52800000D02*
X160948300Y-52800000D01*
X149200000Y-46800000D02*
X148459800Y-46059800D01*
X160948300Y-52800000D02*
X154948300Y-46800000D01*
X154948300Y-46800000D02*
X149200000Y-46800000D01*
X132841400Y-43855800D02*
X131780800Y-43855800D01*
%TO.N,EXP_GPA6*%
X162000000Y-42800000D02*
X160948300Y-42800000D01*
X128714400Y-41164400D02*
X129400000Y-41850000D01*
X160948300Y-42800000D02*
X159376900Y-44371400D01*
X154009600Y-44371400D02*
X154009600Y-44009600D01*
X128488300Y-41164400D02*
X128714400Y-41164400D01*
X154009600Y-44009600D02*
X152000000Y-42000000D01*
X159376900Y-44371400D02*
X154009600Y-44371400D01*
%TO.N,EXP_GPA7*%
X154800000Y-37920300D02*
X154800000Y-42000000D01*
X129775900Y-42800000D02*
X129400000Y-42800000D01*
X162000000Y-37800000D02*
X154920300Y-37800000D01*
X130501100Y-42074800D02*
X129775900Y-42800000D01*
X153276600Y-36396900D02*
X135787100Y-36396900D01*
X154800000Y-37920300D02*
X153276600Y-36396900D01*
X154920300Y-37800000D02*
X154800000Y-37920300D01*
X135787100Y-36396900D02*
X130501100Y-41682900D01*
X130501100Y-41682900D02*
X130501100Y-42074800D01*
%TO.N,MCP_RESET*%
X144000000Y-58600000D02*
X144089000Y-58600000D01*
X144807800Y-57881200D02*
X150568800Y-57881200D01*
X147200000Y-64800000D02*
X147200000Y-63748300D01*
X140497100Y-40962400D02*
X139500000Y-39965300D01*
X144000000Y-60548300D02*
X144000000Y-58600000D01*
X144089000Y-58600000D02*
X144807800Y-57881200D01*
X147200000Y-63748300D02*
X144000000Y-60548300D01*
X139500000Y-39965300D02*
X139500000Y-39300000D01*
X144807800Y-56537700D02*
X143662700Y-55392600D01*
X150568800Y-57881200D02*
X151000000Y-57450000D01*
X144807800Y-57881200D02*
X144807800Y-56537700D01*
%TO.N,CBSET*%
X29225000Y-44110700D02*
X29225000Y-43500000D01*
X31447300Y-39300000D02*
X31263500Y-39483800D01*
X30250000Y-37200000D02*
X30250000Y-35962500D01*
X32350000Y-39300000D02*
X30250000Y-37200000D01*
X29615300Y-44501000D02*
X29225000Y-44110700D01*
X32350000Y-39300000D02*
X31447300Y-39300000D01*
%TO.N,EXP_GPB0*%
X125955000Y-15451700D02*
X128337700Y-17834400D01*
X122600000Y-14400000D02*
X123651700Y-14400000D01*
X136331600Y-24480700D02*
X132612300Y-28200000D01*
X150524600Y-26321900D02*
X148683400Y-24480700D01*
X128337700Y-17834400D02*
X128337700Y-27986100D01*
X153478100Y-26321900D02*
X150524600Y-26321900D01*
X132612300Y-28200000D02*
X131600000Y-28200000D01*
X123651700Y-14400000D02*
X124703400Y-15451700D01*
X154200000Y-25600000D02*
X153478100Y-26321900D01*
X129050600Y-28699000D02*
X131101000Y-28699000D01*
X148683400Y-24480700D02*
X136331600Y-24480700D01*
X128337700Y-27986100D02*
X129050600Y-28699000D01*
X131101000Y-28699000D02*
X131600000Y-28200000D01*
X124703400Y-15451700D02*
X125955000Y-15451700D01*
%TO.N,EXP_GPA3*%
X148996300Y-23303700D02*
X149056600Y-23243400D01*
X139053700Y-23303700D02*
X148996300Y-23303700D01*
X138750000Y-23000000D02*
X139053700Y-23303700D01*
X161423200Y-56748300D02*
X160597100Y-55922200D01*
X162000000Y-56748300D02*
X161423200Y-56748300D01*
X162000000Y-57800000D02*
X162000000Y-56748300D01*
X149056600Y-23243400D02*
X149700000Y-22600000D01*
X149056600Y-23243400D02*
X149747300Y-23934200D01*
%TO.N,PMID*%
X29750000Y-30683000D02*
X29500000Y-30433000D01*
X28601800Y-26130200D02*
X28601800Y-26038800D01*
X28431500Y-25868500D02*
X27813000Y-25250000D01*
X30100000Y-24200000D02*
X28431500Y-25868500D01*
X29500000Y-30433000D02*
X29500000Y-29400000D01*
X28601800Y-26038800D02*
X28431500Y-25868500D01*
X29750000Y-32037500D02*
X29750000Y-30683000D01*
X27813000Y-25250000D02*
X27000000Y-25250000D01*
X29500000Y-30433000D02*
X28664500Y-30433000D01*
X29750000Y-32037500D02*
X30250000Y-32037500D01*
%TO.N,EXP_GPB4*%
X135947000Y-27703000D02*
X135947000Y-28877500D01*
X131693200Y-35893200D02*
X133747700Y-35893200D01*
X160748300Y-63800000D02*
X160296100Y-64252200D01*
X160296100Y-64252200D02*
X160296100Y-64380300D01*
X131600000Y-35800000D02*
X131693200Y-35893200D01*
X136400000Y-27250000D02*
X135947000Y-27703000D01*
X161800000Y-63800000D02*
X160748300Y-63800000D01*
%TO.N,EXP_GPB5*%
X152800000Y-67548300D02*
X153104900Y-67548300D01*
X144403000Y-28442100D02*
X143800000Y-27839100D01*
X152800000Y-68600000D02*
X152800000Y-67548300D01*
X143800000Y-27839100D02*
X143800000Y-27250000D01*
X139218500Y-34850000D02*
X139708400Y-35339900D01*
X153104900Y-67548300D02*
X153343400Y-67309800D01*
X131600000Y-34850000D02*
X139218500Y-34850000D01*
%TO.N,EXP_GPB6*%
X137901700Y-31693000D02*
X137174700Y-32420000D01*
X156348300Y-68800000D02*
X153612300Y-66064000D01*
X138839600Y-31058100D02*
X138204700Y-31693000D01*
X138839600Y-27239600D02*
X138839600Y-31058100D01*
X137174700Y-32420000D02*
X130805000Y-32420000D01*
X157400000Y-68800000D02*
X156348300Y-68800000D01*
X138800000Y-27200000D02*
X138839600Y-27239600D01*
X151101400Y-66064000D02*
X151101400Y-66063900D01*
X153612300Y-66064000D02*
X151101400Y-66064000D01*
X138204700Y-31693000D02*
X137901700Y-31693000D01*
X130805000Y-32420000D02*
X129325000Y-33900000D01*
%TO.N,EXP_GPB7*%
X130462500Y-33712800D02*
X131346300Y-32829000D01*
X131346300Y-32829000D02*
X137641900Y-32829000D01*
X139298800Y-29051300D02*
X141100100Y-27250000D01*
X143466600Y-35339900D02*
X157613000Y-35339900D01*
X161437700Y-67408200D02*
X161777800Y-67748300D01*
X161800000Y-68800000D02*
X161800000Y-67748300D01*
X129325000Y-34850000D02*
X129738900Y-34850000D01*
X129738900Y-34850000D02*
X130462500Y-34126400D01*
X161777800Y-67748300D02*
X161800000Y-67748300D01*
X137641900Y-32829000D02*
X139298800Y-31172100D01*
X139298800Y-31172100D02*
X143466600Y-35339900D01*
X130462500Y-34126400D02*
X130462500Y-33712800D01*
X139298800Y-31172100D02*
X139298800Y-29051300D01*
X141100100Y-27250000D02*
X141200000Y-27250000D01*
%TO.N,FB_3V3*%
X80755400Y-22430400D02*
X77104000Y-22430400D01*
X78458700Y-26633700D02*
X80825000Y-29000000D01*
X84085600Y-29089400D02*
X84175000Y-29000000D01*
X76720800Y-25721000D02*
X77633500Y-26633700D01*
X80825000Y-29000000D02*
X80914400Y-29089400D01*
X77104000Y-22430400D02*
X76720800Y-22813600D01*
X77633500Y-26633700D02*
X78458700Y-26633700D01*
X80914400Y-29089400D02*
X84085600Y-29089400D01*
X81125000Y-22800000D02*
X80755400Y-22430400D01*
X76720800Y-22813600D02*
X76720800Y-25721000D01*
%TO.N,EN_3V3*%
X81125000Y-23750000D02*
X78200000Y-23750000D01*
X78200000Y-23750000D02*
X77600000Y-23150000D01*
%TO.N,SW_3V3*%
X86350000Y-23750000D02*
X83400000Y-23750000D01*
X99900000Y-24000000D02*
X95300000Y-19400000D01*
X90700000Y-19400000D02*
X86350000Y-23750000D01*
X95300000Y-19400000D02*
X90700000Y-19400000D01*
%TO.N,BST_3V3*%
X83400000Y-22800000D02*
X86800000Y-19400000D01*
X86800000Y-19400000D02*
X89150000Y-19400000D01*
%TO.N,MCP_GPB1*%
X150930000Y-27720000D02*
X151400000Y-27250000D01*
X150930000Y-30000000D02*
X150930000Y-27720000D01*
%TO.N,EXP_GPB1*%
X133453000Y-24677200D02*
X133453000Y-26591400D01*
X148868800Y-24079000D02*
X134051200Y-24079000D01*
X134051200Y-24079000D02*
X133453000Y-24677200D01*
X133453000Y-24677200D02*
X131501000Y-22725200D01*
X133453000Y-26591400D02*
X132794400Y-27250000D01*
X131501000Y-16750700D02*
X132800000Y-15451700D01*
X132794400Y-27250000D02*
X131600000Y-27250000D01*
X131501000Y-22725200D02*
X131501000Y-16750700D01*
X150389800Y-25600000D02*
X148868800Y-24079000D01*
X132800000Y-14400000D02*
X132800000Y-15451700D01*
X151400000Y-25600000D02*
X150389800Y-25600000D01*
%TO.N,CELL_MID*%
X28901400Y-37112900D02*
X29141700Y-37112900D01*
X37775000Y-43500000D02*
X37775000Y-43075000D01*
X34000000Y-39535500D02*
X34000000Y-39300000D01*
X28901400Y-37112900D02*
X28901400Y-39837500D01*
X39082200Y-43924200D02*
X38199200Y-43924200D01*
X51550000Y-34919500D02*
X51650000Y-35019500D01*
X68100000Y-16500000D02*
X66948300Y-16500000D01*
X66948300Y-17003900D02*
X60022400Y-23929800D01*
X29750000Y-36504600D02*
X29750000Y-35962500D01*
X28901400Y-39837500D02*
X29619200Y-40555300D01*
X22912900Y-37112900D02*
X28901400Y-37112900D01*
X38199200Y-43924200D02*
X37775000Y-43500000D01*
X51550000Y-34919500D02*
X51550000Y-32400000D01*
X48173400Y-34919500D02*
X51550000Y-34919500D01*
X41400000Y-57800000D02*
X39479400Y-57800000D01*
X37775000Y-43075000D02*
X34000000Y-39300000D01*
X29141700Y-37112900D02*
X29750000Y-36504600D01*
X66948300Y-16500000D02*
X66948300Y-17003900D01*
X22000000Y-36200000D02*
X22912900Y-37112900D01*
X32980200Y-40555300D02*
X34000000Y-39535500D01*
X51650000Y-35019500D02*
X51650000Y-36100000D01*
X51550000Y-30012600D02*
X51550000Y-32400000D01*
X29619200Y-40555300D02*
X32980200Y-40555300D01*
X60022400Y-23929800D02*
X57632800Y-23929800D01*
X39479400Y-57800000D02*
X39082200Y-57402800D01*
X57632800Y-23929800D02*
X51550000Y-30012600D01*
%TO.N,+5V_SW*%
D65*
X96500000Y-53950000D02*
X96249400Y-53699400D01*
X52350000Y-14920000D02*
X57043300Y-14920000D01*
X57043300Y-14920000D02*
X57123300Y-15000000D01*
X96249400Y-53699400D02*
X91962800Y-53699400D01*
X58500000Y-15000000D02*
X57123300Y-15000000D01*
%TO.N,PROT_VDD*%
D10*
X58314300Y-31900000D02*
X58279300Y-31865000D01*
X57625000Y-28948200D02*
X57448300Y-29124900D01*
X57448300Y-29124900D02*
X57448300Y-31034000D01*
X63437500Y-31900000D02*
X58314300Y-31900000D01*
X52485700Y-40500000D02*
X52350800Y-40365100D01*
X66153000Y-25500000D02*
X62704800Y-28948200D01*
X53500000Y-40500000D02*
X52485700Y-40500000D01*
X57448300Y-31034000D02*
X58279300Y-31865000D01*
X62704800Y-28948200D02*
X57625000Y-28948200D01*
X66250000Y-25500000D02*
X66153000Y-25500000D01*
%TO.N,PROT_VC*%
X64725000Y-25475000D02*
X64725000Y-22000000D01*
X63337900Y-32499600D02*
X63437500Y-32400000D01*
X53299600Y-32499600D02*
X63337900Y-32499600D01*
X62797700Y-27402300D02*
X58197700Y-27402300D01*
X53200000Y-32400000D02*
X53299600Y-32499600D01*
X64700000Y-25500000D02*
X64725000Y-25475000D01*
X58197700Y-27402300D02*
X53200000Y-32400000D01*
X64700000Y-25500000D02*
X62797700Y-27402300D01*
%TO.N,MCP_GPA1*%
X143179400Y-37415700D02*
X144580000Y-38816300D01*
X133877800Y-21050000D02*
X134204000Y-21376200D01*
X142908300Y-37415700D02*
X143179400Y-37415700D01*
X132700000Y-21050000D02*
X133877800Y-21050000D01*
X144580000Y-38816300D02*
X144580000Y-39300000D01*
%TO.N,EXP_GPA1*%
X133422100Y-21977900D02*
X132700000Y-22700000D01*
X137861700Y-21972100D02*
X136643700Y-21972100D01*
X120251700Y-14400000D02*
X120704200Y-14852500D01*
X136643700Y-21972100D02*
X136637900Y-21977900D01*
X136637900Y-21977900D02*
X133422100Y-21977900D01*
X138750000Y-20725000D02*
X138750000Y-21083800D01*
X119200000Y-14400000D02*
X120251700Y-14400000D01*
X138750000Y-20363700D02*
X137923700Y-19537400D01*
X138750000Y-20725000D02*
X138750000Y-20363700D01*
X138750000Y-21083800D02*
X137861700Y-21972100D01*
%TO.N,BQ_PACK*%
X44217200Y-38282800D02*
X44217200Y-36568200D01*
X63437500Y-30400000D02*
X63139800Y-30400000D01*
X62899500Y-30159700D02*
X62245500Y-30159700D01*
X63139800Y-30400000D02*
X62899500Y-30159700D01*
X62245500Y-30159700D02*
X61817600Y-30587600D01*
X43900000Y-38600000D02*
X44217200Y-38282800D01*
%TO.N,EN_5V*%
X26650000Y-69500000D02*
X26602700Y-69452700D01*
X26450000Y-57880300D02*
X26450000Y-57475000D01*
X25510000Y-58820300D02*
X26450000Y-57880300D01*
X26602700Y-69452700D02*
X26602700Y-68509700D01*
X24978500Y-58820300D02*
X25510000Y-58820300D01*
%TO.N,SW_5V*%
X26450000Y-55575900D02*
X26450000Y-55200000D01*
X15250300Y-60267500D02*
X15250300Y-57798500D01*
X16747700Y-56301100D02*
X25724800Y-56301100D01*
X26450000Y-52250000D02*
X26800000Y-51900000D01*
X25724800Y-56301100D02*
X26450000Y-55575900D01*
X16582800Y-61600000D02*
X15250300Y-60267500D01*
X15250300Y-57798500D02*
X16747700Y-56301100D01*
X19400000Y-61600000D02*
X16582800Y-61600000D01*
X26450000Y-55200000D02*
X26450000Y-52250000D01*
%TO.N,BST_5V*%
X25250000Y-54950000D02*
X25250000Y-51900000D01*
X25500000Y-55200000D02*
X25250000Y-54950000D01*
%TO.N,MCP_A2*%
X139321000Y-43296600D02*
X139348300Y-43323900D01*
X138230000Y-39300000D02*
X138230000Y-40613500D01*
X138230000Y-40613500D02*
X139321000Y-41704500D01*
X139348300Y-43323900D02*
X139348300Y-45451700D01*
X139348300Y-45451700D02*
X138000000Y-46800000D01*
X139321000Y-41704500D02*
X139321000Y-43296600D01*
%TO.N,REGN*%
X46416500Y-35966500D02*
X41025900Y-35966500D01*
X42450000Y-33900000D02*
X43373300Y-32976700D01*
X33056300Y-38154200D02*
X32390000Y-38154200D01*
X45564700Y-33466000D02*
X44924400Y-32825600D01*
X38838200Y-38154200D02*
X33056300Y-38154200D01*
X41025900Y-35966500D02*
X38838200Y-38154200D01*
X30750000Y-36514200D02*
X30750000Y-35962500D01*
X30356200Y-40106200D02*
X29650000Y-39400000D01*
X43373300Y-32976700D02*
X44773300Y-32976700D01*
X46650000Y-36200000D02*
X46416500Y-35966500D01*
X46650000Y-36200000D02*
X46650000Y-34853500D01*
X44773300Y-32976700D02*
X44924400Y-32825600D01*
X32790000Y-40106200D02*
X30356200Y-40106200D01*
X32390000Y-38154200D02*
X30750000Y-36514200D01*
X44924400Y-32825600D02*
X46650000Y-31100000D01*
X33056300Y-38154200D02*
X33056300Y-39839900D01*
X33056300Y-39839900D02*
X32790000Y-40106200D01*
X45564700Y-33768200D02*
X45564700Y-33466000D01*
X46650000Y-34853500D02*
X45564700Y-33768200D01*
%TO.N,LED_PGOOD_A*%
X48428700Y-36071300D02*
X49217000Y-36071300D01*
X25327400Y-76214100D02*
X26571500Y-74970000D01*
X26571500Y-74970000D02*
X26571500Y-74867200D01*
X48300000Y-36200000D02*
X48428700Y-36071300D01*
X24139100Y-76214100D02*
X25327400Y-76214100D01*
X23325000Y-75400000D02*
X24139100Y-76214100D01*
%TO.N,CTRL_5V_SW*%
X50185400Y-50166300D02*
X50825000Y-50805900D01*
X50825000Y-50805900D02*
X50825000Y-52000000D01*
%TO.N,MCP_GPA7*%
X153851000Y-42701000D02*
X154800000Y-43650000D01*
X153851000Y-40951000D02*
X153851000Y-42701000D01*
X152200000Y-39300000D02*
X153851000Y-40951000D01*
%TO.N,CTRL_3V3_SW*%
X82900000Y-47040000D02*
X85560000Y-47040000D01*
X85560000Y-47040000D02*
X90000000Y-42600000D01*
%TO.N,GPIO21*%
X117200000Y-45200000D02*
X118251700Y-45200000D01*
X123000000Y-41400000D02*
X122051700Y-41400000D01*
X122051700Y-41400000D02*
X118251700Y-45200000D01*
%TO.N,MCP_GPB3*%
X148390000Y-28348100D02*
X147720800Y-27678900D01*
X147720800Y-27678900D02*
X147720800Y-27120800D01*
X147720800Y-27120800D02*
X146200000Y-25600000D01*
X148390000Y-30000000D02*
X148390000Y-28348100D01*
%TO.N,MCP_GPA6*%
X150930000Y-39300000D02*
X150930000Y-42580000D01*
X150930000Y-42580000D02*
X152000000Y-43650000D01*
%TO.N,CC2*%
X76780000Y-50120000D02*
X76780000Y-46370000D01*
X76780000Y-46370000D02*
X78150000Y-45000000D01*
%TO.N,CC1*%
X75780000Y-46755000D02*
X74025000Y-45000000D01*
X75780000Y-50120000D02*
X75780000Y-46755000D01*
%TO.N,MCP_GPA0*%
X145223600Y-42473600D02*
X145223600Y-41862500D01*
X146400000Y-43650000D02*
X145223600Y-42473600D01*
X143310000Y-39948900D02*
X143310000Y-39300000D01*
X145223600Y-41862500D02*
X143310000Y-39948900D01*
%TO.N,EXP_GPA0*%
X146331500Y-40903500D02*
X146400000Y-40972000D01*
X146400000Y-40972000D02*
X146400000Y-42000000D01*
X116851700Y-14400000D02*
X117077900Y-14626200D01*
X140133500Y-20291500D02*
X140133500Y-19554900D01*
X139700000Y-20725000D02*
X140133500Y-20291500D01*
X115800000Y-14400000D02*
X116851700Y-14400000D01*
%TO.N,GPIO14*%
X123000000Y-38860000D02*
X119591700Y-38860000D01*
X117200000Y-40200000D02*
X118251700Y-40200000D01*
X119591700Y-38860000D02*
X118251700Y-40200000D01*
%TO.N,PG_STAT*%
X24900000Y-71364700D02*
X24254700Y-70719400D01*
X27120200Y-32638500D02*
X27926000Y-32638500D01*
X27926000Y-32638500D02*
X28037500Y-32750000D01*
X24900000Y-75400000D02*
X24900000Y-71364700D01*
X58600000Y-40422400D02*
X58600000Y-39400000D01*
%TO.N,GPIO3*%
X101545600Y-40664400D02*
X107010000Y-35200000D01*
X88350000Y-42600000D02*
X90285600Y-40664400D01*
X107010000Y-35200000D02*
X117200000Y-35200000D01*
X90285600Y-40664400D02*
X101545600Y-40664400D01*
%TO.N,UART_TX*%
X99000000Y-53950000D02*
X99000000Y-54799999D01*
X99000000Y-54799999D02*
X99300001Y-55100000D01*
X96690552Y-48900000D02*
X88687600Y-48900000D01*
X99300001Y-55100000D02*
X100590552Y-55100000D01*
X100850000Y-54840552D02*
X100850000Y-53059448D01*
X100590552Y-55100000D02*
X100850000Y-54840552D01*
X58447800Y-21310700D02*
X58500000Y-21258500D01*
X58500000Y-21258500D02*
X58500000Y-20000000D01*
X100850000Y-53059448D02*
X96690552Y-48900000D01*
X88687600Y-48900000D02*
X85234300Y-52353300D01*
%TO.N,BATT_RAW_N*%
D63*
X64662500Y-31150000D02*
X64662500Y-29631100D01*
X65407300Y-32853900D02*
X65978400Y-33425000D01*
X59884300Y-36100000D02*
X53200000Y-36100000D01*
D69*
X65537100Y-32750400D02*
X65887500Y-32400000D01*
D63*
X46600000Y-48300000D02*
X48100000Y-48300000D01*
X64662500Y-29631100D02*
X69468600Y-24825000D01*
X70600000Y-17675000D02*
X66275000Y-22000000D01*
X51250000Y-45150000D02*
X50730100Y-44630100D01*
X65978400Y-33425000D02*
X70800000Y-33425000D01*
X62161200Y-36100000D02*
X65407300Y-32853900D01*
D70*
X68888500Y-24326000D02*
X69501000Y-24326000D01*
D69*
X64863400Y-32750400D02*
X65407300Y-32750400D01*
D63*
X59884300Y-43115700D02*
X58600000Y-44400000D01*
X64662500Y-31150000D02*
X64662500Y-32549500D01*
X54300000Y-44400000D02*
X58600000Y-44400000D01*
D70*
X69501000Y-24326000D02*
X70000000Y-24825000D01*
D63*
X68601000Y-24326000D02*
X68888500Y-24326000D01*
X52400000Y-46300000D02*
X54300000Y-44400000D01*
D69*
X65407300Y-32750400D02*
X65537100Y-32750400D01*
D71*
X49765400Y-44600000D02*
X49200000Y-44600000D01*
D63*
X52400000Y-46300000D02*
X51250000Y-45150000D01*
X65407300Y-32750400D02*
X65407300Y-32853900D01*
X50730100Y-44630100D02*
X49795500Y-44630100D01*
D71*
X49795500Y-44630100D02*
X49765400Y-44600000D01*
D63*
X66275000Y-22000000D02*
X68601000Y-24326000D01*
X64662500Y-32549500D02*
X64863400Y-32750400D01*
X69468600Y-24825000D02*
X70000000Y-24825000D01*
X48100000Y-48300000D02*
X51250000Y-45150000D01*
X59884300Y-36100000D02*
X62161200Y-36100000D01*
X59884300Y-36100000D02*
X59884300Y-43115700D01*
X70600000Y-16500000D02*
X70600000Y-17675000D01*
%TO.N,MCP_GPB5*%
D10*
X144749000Y-27017600D02*
X145850000Y-28118600D01*
X144749000Y-26549000D02*
X144749000Y-27017600D01*
X145850000Y-28118600D02*
X145850000Y-30000000D01*
X143800000Y-25600000D02*
X144749000Y-26549000D01*
%TO.N,LED_CHG_A*%
X47553500Y-31846500D02*
X47553500Y-38852400D01*
X19025000Y-75300000D02*
X18798600Y-75073600D01*
X18798600Y-75073600D02*
X18052200Y-75073600D01*
X48300000Y-31100000D02*
X47553500Y-31846500D01*
%TO.N,CHG_STAT*%
X22361600Y-75176400D02*
X20723600Y-75176400D01*
X28037500Y-33250000D02*
X27554200Y-33250000D01*
X55356100Y-34400000D02*
X55073000Y-34116900D01*
X20723600Y-75176400D02*
X20600000Y-75300000D01*
X27554200Y-33250000D02*
X27094700Y-33709500D01*
X58600000Y-34400000D02*
X55356100Y-34400000D01*
%TO.N,AIN2*%
X89715800Y-22584200D02*
X89715800Y-21321400D01*
X89600000Y-22700000D02*
X89715800Y-22584200D01*
X139000000Y-14590900D02*
X139000000Y-15950000D01*
%TO.N,MCP_GPB7*%
X143310000Y-30000000D02*
X143310000Y-29310300D01*
X143310000Y-29310300D02*
X142341600Y-28341900D01*
X142341600Y-26741600D02*
X141200000Y-25600000D01*
X142341600Y-28341900D02*
X142341600Y-26741600D01*
%TO.N,MCP_INTA*%
X144621900Y-42111700D02*
X143711700Y-42111700D01*
X147200000Y-59748300D02*
X147182600Y-59748300D01*
X147182600Y-59748300D02*
X146809300Y-59375000D01*
X147200000Y-60800000D02*
X147200000Y-59748300D01*
X143711700Y-42111700D02*
X143600000Y-42000000D01*
X142040000Y-39300000D02*
X142040000Y-40440000D01*
X142040000Y-40440000D02*
X143600000Y-42000000D01*
%TO.N,BTST*%
X34600000Y-35200000D02*
X34600000Y-35345300D01*
X34600000Y-35345300D02*
X35283600Y-36028900D01*
X31668200Y-36380700D02*
X31250000Y-35962500D01*
X32038900Y-36380700D02*
X31668200Y-36380700D01*
%TO.N,CHG_SW*%
X31962500Y-33250000D02*
X34200000Y-33250000D01*
X31962500Y-32750000D02*
X31962500Y-33250000D01*
X36627900Y-33650000D02*
X37595800Y-32682100D01*
X37595800Y-32682100D02*
X37595800Y-27995800D01*
X37595800Y-27995800D02*
X33800000Y-24200000D01*
X34600000Y-33650000D02*
X36627900Y-33650000D01*
X34200000Y-33250000D02*
X34600000Y-33650000D01*
%TO.N,MCP_GPB0*%
X154200000Y-28000000D02*
X154200000Y-27250000D01*
X152200000Y-30000000D02*
X154200000Y-28000000D01*
%TO.N,MCP_GPB4*%
X147653000Y-29467000D02*
X147653000Y-28556100D01*
X147120000Y-30000000D02*
X147653000Y-29467000D01*
X133897800Y-28102200D02*
X136400000Y-25600000D01*
X133897800Y-28455000D02*
X133897800Y-28102200D01*
%TO.N,MCP_GPB6*%
X144580000Y-29469900D02*
X144580000Y-30000000D01*
X142743300Y-27633200D02*
X144580000Y-29469900D01*
X142743300Y-25911500D02*
X142743300Y-27633200D01*
X141723200Y-24891400D02*
X142743300Y-25911500D01*
X138800000Y-25550000D02*
X139458600Y-24891400D01*
X139458600Y-24891400D02*
X141723200Y-24891400D01*
%TO.N,MCP_A1*%
X136960000Y-40910000D02*
X138000000Y-41950000D01*
X136960000Y-39300000D02*
X136960000Y-40910000D01*
%TO.N,MCP_GPA2*%
X144680000Y-20670000D02*
X145540900Y-20670000D01*
X146065500Y-39084500D02*
X146065500Y-37586500D01*
X144400000Y-20950000D02*
X144680000Y-20670000D01*
X145850000Y-39300000D02*
X146065500Y-39084500D01*
%TO.N,MCP_GPA3*%
X149700000Y-20950000D02*
X149880000Y-20770000D01*
X147120000Y-38730500D02*
X148264000Y-37586500D01*
X147120000Y-39300000D02*
X147120000Y-38730500D01*
X149880000Y-20770000D02*
X150692800Y-20770000D01*
%TO.N,MCP_GPA4*%
X149200000Y-45150000D02*
X147947500Y-43897500D01*
X147947500Y-39742500D02*
X148390000Y-39300000D01*
X147947500Y-43897500D02*
X147947500Y-39742500D01*
%TO.N,AIN1*%
X93482800Y-22282800D02*
X92748000Y-22282800D01*
X93900000Y-22700000D02*
X93482800Y-22282800D01*
X33544500Y-17222300D02*
X33000000Y-16677800D01*
X33000000Y-16677800D02*
X33000000Y-15950000D01*
%TO.N,AIN3*%
X89600000Y-23200000D02*
X90608500Y-23200000D01*
X151000000Y-17194700D02*
X151120900Y-17315600D01*
X151000000Y-15950000D02*
X151000000Y-17194700D01*
X90608500Y-23200000D02*
X91054700Y-23646200D01*
%TO.N,UART_RX*%
X100250000Y-53950000D02*
X100250000Y-53662300D01*
X58500000Y-25000000D02*
X58500000Y-26162800D01*
X100250000Y-53662300D02*
X99092100Y-52504400D01*
X99092100Y-52504400D02*
X88978700Y-52504400D01*
X58500000Y-26162800D02*
X59137700Y-26800500D01*
%TO.N,BQ_SRN*%
X72598900Y-29045000D02*
X72598900Y-29376100D01*
X70690700Y-22484300D02*
X74270900Y-22484300D01*
X70000000Y-23175000D02*
X70690700Y-22484300D01*
X70075000Y-31900000D02*
X71800000Y-30175000D01*
X72598900Y-29376100D02*
X71800000Y-30175000D01*
X75214000Y-26429900D02*
X72598900Y-29045000D01*
X75214000Y-23427400D02*
X75214000Y-26429900D01*
X74270900Y-22484300D02*
X75214000Y-23427400D01*
X65887500Y-31900000D02*
X70075000Y-31900000D01*
%TO.N,BQ_SRP*%
X69489400Y-31400000D02*
X70603700Y-30285700D01*
X71800000Y-28625000D02*
X71800000Y-25200000D01*
X65887500Y-31400000D02*
X69489400Y-31400000D01*
X70603700Y-29821300D02*
X71800000Y-28625000D01*
X71800000Y-25200000D02*
X73800000Y-23200000D01*
X70603700Y-30285700D02*
X70603700Y-29821300D01*
%TO.N,DO_GATE*%
X45950000Y-44869239D02*
X45950000Y-44330761D01*
X64994300Y-35540700D02*
X65540700Y-35540700D01*
X45950000Y-44330761D02*
X47680761Y-42600000D01*
X48200000Y-42600000D02*
X48200000Y-42119100D01*
X47680761Y-42600000D02*
X48200000Y-42600000D01*
X48550000Y-44600000D02*
X48550000Y-44659600D01*
X46330761Y-45250000D02*
X45950000Y-44869239D01*
X65540700Y-35540700D02*
X66000000Y-36000000D01*
X48550000Y-44659600D02*
X47959600Y-45250000D01*
X47959600Y-45250000D02*
X46330761Y-45250000D01*
X48200000Y-42119100D02*
X48233500Y-42085600D01*
%TO.N,CO_GATE*%
X48910100Y-43589900D02*
X48910100Y-41510100D01*
X48910100Y-41510100D02*
X48500000Y-41100000D01*
X48550000Y-43950000D02*
X48910100Y-43589900D01*
%TO.N,AIN0*%
X94930500Y-22962900D02*
X94930500Y-22416500D01*
X21000000Y-14564400D02*
X21000000Y-15950000D01*
X94693400Y-23200000D02*
X94930500Y-22962900D01*
X93900000Y-23200000D02*
X94693400Y-23200000D01*
X94930500Y-22416500D02*
X94540200Y-22026200D01*
%TO.N,BQ_DSG*%
X64569000Y-38332900D02*
X65317100Y-38332900D01*
X63437500Y-29900000D02*
X63295500Y-29758000D01*
X63295500Y-29758000D02*
X61767300Y-29758000D01*
X61767300Y-29758000D02*
X60923600Y-30601700D01*
X65317100Y-38332900D02*
X66000000Y-37650000D01*
X60923600Y-30601700D02*
X60923600Y-30761400D01*
%TO.N,BQ_CHG*%
X62729000Y-30900000D02*
X62625000Y-30796000D01*
X46850000Y-41100000D02*
X45946100Y-41100000D01*
X63437500Y-30900000D02*
X62729000Y-30900000D01*
%TO.N,BQ_PBI*%
X60321900Y-30512300D02*
X61477900Y-29356300D01*
X61477900Y-29356300D02*
X63147500Y-29356300D01*
X60321900Y-31029700D02*
X60321900Y-30512300D01*
X68594000Y-34913000D02*
X70738000Y-34913000D01*
X70738000Y-34913000D02*
X70800000Y-34975000D01*
X63437500Y-31400000D02*
X60692200Y-31400000D01*
X63147500Y-29356300D02*
X63823900Y-28679900D01*
X60692200Y-31400000D02*
X60321900Y-31029700D01*
%TD*%
M02*
